<svg width="614" height="208" viewBox="0 0 614 208" fill="none" xmlns="http://www.w3.org/2000/svg">
<g filter="url(#filter0_d_0_1)">
<path d="M50.76 67.624L45 64.168L42.824 59.432L34.504 50.856L33.608 48.936L28.872 42.792L28.104 40.488L27.848 41.384C27.7627 41.7253 27.72 42.4933 27.72 43.688C27.8053 44.8827 27.592 45.736 27.08 46.248C26.824 46.5893 26.5253 47.272 26.184 48.296C25.8427 49.2347 25.6293 49.8747 25.544 50.216L25.16 54.696C25.2453 54.8667 25.3307 54.9947 25.416 55.08C25.5867 55.1653 25.7147 55.3787 25.8 55.72C25.8853 56.0613 25.928 56.616 25.928 57.384C25.928 58.0667 25.8 59.0907 25.544 60.456C25.032 63.1013 24.8187 65.1493 24.904 66.6C25.0747 67.9653 25.16 68.7333 25.16 68.904C25.16 69.2453 25.2027 69.928 25.288 70.952C25.4587 71.8907 25.3733 73.2133 25.032 74.92C24.6053 78.1627 24.52 80.7653 24.776 82.728L23.368 83.496C23.0267 83.4107 22.5147 83.368 21.832 83.368C21.1493 83.368 20.3813 83.4107 19.528 83.496C18.76 83.496 17.9493 83.5387 17.096 83.624C16.2427 83.624 15.5173 83.624 14.92 83.624H13.256L7.88 84.904L4.552 83.112C4.552 81.7467 4.72267 80.2107 5.064 78.504C5.32 76.7973 5.53333 75.304 5.704 74.024C5.87467 72.744 5.96 71.7627 5.96 71.08C5.96 70.9093 5.87467 70.5253 5.704 69.928C5.53333 69.2453 5.40533 68.776 5.32 68.52L6.216 49.192C6.472 49.192 6.64267 48.8933 6.728 48.296C6.81333 47.6987 6.856 47.0587 6.856 46.376C6.856 45.6933 6.81333 45.0533 6.728 44.456C6.64267 43.7733 6.55733 43.3467 6.472 43.176C6.38667 43.0907 6.42933 42.7493 6.6 42.152C6.856 41.5547 7.15467 40.9147 7.496 40.232L8.392 38.312C8.56267 37.9707 8.69067 37.7573 8.776 37.672C8.94667 37.5013 9.07467 37.3733 9.16 37.288C9.33067 36.776 9.37333 36.3493 9.288 36.008C9.20267 35.6667 9.07467 35.2827 8.904 34.856C8.81867 34.4293 8.73333 33.832 8.648 33.064C8.56267 32.296 8.60533 31.1867 8.776 29.736C9.11733 26.8347 9.37333 24.4453 9.544 22.568C9.8 20.6053 9.928 19.368 9.928 18.856V15.912C9.75733 15.144 9.672 14.4187 9.672 13.736C9.75733 12.968 9.416 12.3707 8.648 11.944L8.776 10.28C9.11733 9.512 10.44 9.128 12.744 9.128H19.528C20.04 9.128 20.68 8.872 21.448 8.35999C22.3013 7.84799 23.24 7.54933 24.264 7.464C24.6907 7.29333 25.2027 7.07999 25.8 6.824C26.3973 6.48266 26.824 6.312 27.08 6.312C27.4213 6.312 27.848 6.39733 28.36 6.56799C28.9573 6.73866 29.5547 7.08 30.152 7.592V10.28L37.064 23.976L39.112 34.728L43.464 41.768L47.56 50.728L49.48 51.24L53.704 47.4C53.8747 46.9733 54.0453 46.504 54.216 45.992C54.472 45.48 54.7707 45.0107 55.112 44.584C55.624 43.7307 56.2213 42.792 56.904 41.768C57.672 40.744 58.568 39.6347 59.592 38.44C63.688 34.0027 65.48 30.9733 64.968 29.352L70.472 20.392C71.9227 20.9893 73.1173 20.8613 74.056 20.008C75.08 19.0693 75.8053 16.9787 76.232 13.736C76.232 13.5653 76.1893 13.3093 76.104 12.968C76.0187 12.5413 75.8907 12.1573 75.72 11.816C76.8293 11.304 77.4693 10.792 77.64 10.28C77.8107 9.768 77.896 8.99999 77.896 7.976C78.92 7.54933 79.816 7.29333 80.584 7.20799C81.4373 7.03733 82.3333 6.82399 83.272 6.56799L91.976 11.816C91.8907 12.584 91.8053 13.3947 91.72 14.248C91.6347 15.1013 91.5067 15.9973 91.336 16.936C91.1653 18.1307 90.9947 19.4107 90.824 20.776C90.6533 22.056 90.4827 23.336 90.312 24.616C90.2267 25.8107 90.0987 26.92 89.928 27.944C89.8427 28.968 89.7573 29.7787 89.672 30.376C89.5013 31.2293 89.3307 32.7227 89.16 34.856C88.9893 36.904 88.776 39.72 88.52 43.304C88.264 50.3867 89.16 54.4827 91.208 55.592C91.208 56.1893 91.1653 57.512 91.08 59.56C91.08 61.608 91.0373 64.552 90.952 68.392C90.8667 70.2693 90.824 71.9333 90.824 73.384C90.824 74.8347 90.824 76.1147 90.824 77.224V81.192C88.52 81.7893 86.088 82.344 83.528 82.856C81.0533 83.368 79.0907 83.624 77.64 83.624C77.0427 83.624 76.4453 83.4107 75.848 82.984C75.2507 82.5573 74.8667 81.8747 74.696 80.936C75.2933 80.424 75.592 80.168 75.592 80.168C75.6773 80.168 75.5067 79.9547 75.08 79.528V64.424L75.976 62.376H75.08V56.488C75.08 55.5493 75.0373 54.2693 74.952 52.648C74.8667 51.0267 74.7387 48.9787 74.568 46.504C74.312 44.0293 74.1413 42.152 74.056 40.872C73.9707 39.5067 73.928 38.7387 73.928 38.568C73.928 38.312 74.1413 37.7573 74.568 36.904C75.08 35.9653 75.5493 35.1973 75.976 34.6C76.1467 34.1733 76.1893 33.7467 76.104 33.32C76.104 32.808 76.1467 32.3813 76.232 32.04C76.232 31.6987 76.4027 31.4 76.744 31.144C77.1707 30.8027 77.4693 30.5467 77.64 30.376C77.4693 29.864 77.256 29.3093 77 28.712C76.8293 28.1147 76.744 27.7307 76.744 27.56C72.648 25.6827 71.4107 27.0907 73.032 31.784L70.088 38.184L61.256 51.24L53.32 66.472L50.76 67.624ZM175.919 82.088L171.439 82.856C170.415 83.0267 169.348 83.0267 168.239 82.856C167.13 82.6853 165.978 82.6 164.783 82.6C164.527 82.6 164.143 82.6 163.631 82.6C163.119 82.6 162.522 82.6 161.839 82.6C161.242 82.6 160.644 82.6427 160.047 82.728C159.45 82.728 158.938 82.728 158.511 82.728L155.695 80.808C155.951 79.1013 155.866 77.864 155.439 77.096C155.098 76.328 154.842 75.6027 154.671 74.92C154.5 74.408 154.159 73.5973 153.647 72.488C153.135 71.3787 152.666 70.0987 152.239 68.648C152.239 68.392 151.812 67.624 150.959 66.344C150.106 65.064 149.423 63.912 148.911 62.888L147.375 63.528C146.948 63.528 146.479 63.656 145.967 63.912C145.455 64.168 144.175 64.296 142.127 64.296C141.871 63.784 141.444 63.4427 140.847 63.272C140.25 63.016 139.567 62.9733 138.799 63.144C138.116 63.2293 137.391 63.4853 136.623 63.912C135.94 64.3387 135.343 64.8507 134.831 65.448L129.583 66.216C129.242 65.448 128.858 64.8507 128.431 64.424C128.09 63.912 127.706 63.4427 127.279 63.016C126.938 62.5893 126.639 62.12 126.383 61.608C126.127 61.096 125.999 60.4133 125.999 59.56C127.706 59.1333 128.687 58.5787 128.943 57.896C129.284 57.2133 129.54 56.9147 129.711 57C130.223 57.256 130.692 57.384 131.119 57.384C130.522 57.384 130.351 57.2987 130.607 57.128C130.863 56.9573 132.015 56.5307 134.063 55.848L143.407 54.696L145.327 56.104C146.692 56.4453 147.716 56.5307 148.399 56.36C149.082 56.1893 149.551 55.8907 149.807 55.464C150.063 54.952 150.191 54.3973 150.191 53.8C150.276 53.2027 150.362 52.6907 150.447 52.264C150.618 51.3253 150.404 50.5573 149.807 49.96C149.295 49.2773 148.57 48.68 147.631 48.168C147.46 47.2293 147.119 46.1627 146.607 44.968C146.18 43.688 145.626 42.1947 144.943 40.488C144.346 38.8667 143.791 37.16 143.279 35.368C142.852 33.4907 142.468 31.784 142.127 30.248C141.786 28.712 141.53 27.432 141.359 26.408C141.188 25.384 141.06 24.7867 140.975 24.616C139.78 23.848 138.799 23.8053 138.031 24.488C137.263 25.0853 136.623 25.9813 136.111 27.176C135.684 28.3707 135.386 29.6507 135.215 31.016C135.13 32.296 135.13 33.192 135.215 33.704C135.13 33.8747 134.916 34.1733 134.575 34.6C134.234 34.9413 133.85 35.3253 133.423 35.752C132.996 36.1787 132.612 36.6053 132.271 37.032C131.93 37.3733 131.716 37.6293 131.631 37.8C131.29 38.3973 131.204 39.0373 131.375 39.72C131.546 40.4027 131.418 41 130.991 41.512C129.284 44.584 127.279 47.016 124.975 48.808C124.378 49.32 123.908 50.0453 123.567 50.984C123.226 51.9227 123.012 52.904 122.927 53.928C122.842 54.952 122.927 55.976 123.183 57C123.439 57.9387 123.908 58.7067 124.591 59.304C123.738 59.816 123.055 60.3707 122.543 60.968C122.116 61.48 121.732 62.0773 121.391 62.76C121.135 63.3573 120.879 64.04 120.623 64.808C120.367 65.4907 120.068 66.2587 119.727 67.112C118.276 70.952 117.551 72.9573 117.551 73.128L115.759 76.84L114.095 83.624C114.18 84.904 113.711 85.672 112.687 85.928C111.748 86.184 110.212 86.312 108.079 86.312C106.031 86.824 104.239 87.08 102.703 87.08C101.167 86.9947 100.655 86.184 101.167 84.648C103.386 79.3573 105.007 75.432 106.031 72.872C107.14 70.2267 107.695 68.2213 107.695 66.856C107.695 66.4293 107.866 66.088 108.207 65.832C108.634 65.4907 108.975 65.2347 109.231 65.064C109.316 64.8933 109.615 63.9973 110.127 62.376C110.724 60.7547 111.364 58.9627 112.047 57C112.73 54.952 113.37 53.032 113.967 51.24C114.65 49.3627 115.162 48.0827 115.503 47.4C116.271 45.7787 117.167 43.944 118.191 41.896C119.3 39.848 120.58 37.8853 122.031 36.008C122.799 34.984 123.439 33.576 123.951 31.784C124.548 29.992 125.103 28.0293 125.615 25.896C126.127 23.7627 126.682 21.5867 127.279 19.368C127.876 17.1493 128.644 15.1013 129.583 13.224C130.095 13.0533 131.588 11.176 134.063 7.592C134.234 7.42133 134.362 7.25066 134.447 7.07999C134.618 6.824 134.788 6.61066 134.959 6.43999L151.343 5.41599C151.684 5.84266 152.068 6.35467 152.495 6.952C152.922 7.54933 153.391 8.18933 153.903 8.87199C155.524 10.92 156.506 12.5413 156.847 13.736C157.188 14.9307 157.402 15.7413 157.487 16.168C157.316 16.424 158.212 19.3253 160.175 24.872C160.687 26.2373 161.114 27.7733 161.455 29.48C161.796 31.1867 162.052 32.808 162.223 34.344C162.394 35.7947 162.479 37.0747 162.479 38.184C162.479 39.208 162.436 39.7627 162.351 39.848C162.18 39.9333 163.546 41 166.447 43.048C167.13 43.56 167.514 44.0293 167.599 44.456C167.77 44.8827 167.77 45.2667 167.599 45.608C167.514 45.9493 167.343 46.248 167.087 46.504C166.831 46.76 166.703 46.9307 166.703 47.016L170.159 51.624C170.159 51.624 171.14 55.336 173.103 62.76C174.212 66.344 175.023 69.416 175.535 71.976C176.047 74.4507 176.303 76.3707 176.303 77.736C176.303 77.9067 176.346 78.0347 176.431 78.12C176.431 78.0347 176.516 78.248 176.687 78.76L175.919 82.088ZM208.627 83.24L207.091 83.752C205.896 84.1787 204.488 84.4773 202.867 84.648C201.331 84.7333 200.35 84.776 199.923 84.776C199.667 84.776 199.07 84.7333 198.131 84.648C197.278 84.4773 196.638 84.392 196.211 84.392C195.955 84.392 195.614 84.6053 195.187 85.032L189.427 82.984C189.427 82.5573 189.427 82.1733 189.427 81.832C189.512 81.4907 189.598 81.1067 189.683 80.68C189.854 79.4853 189.982 78.376 190.067 77.352C190.238 76.2427 190.238 75.2187 190.067 74.28C190.75 73.5973 190.835 71.5067 190.323 68.008C189.811 64.424 189.555 62.1627 189.555 61.224C189.555 60.968 189.64 60.2853 189.811 59.176C189.982 58.0667 190.152 57.0853 190.323 56.232C190.408 55.976 190.579 55.6347 190.835 55.208C191.176 54.7813 191.347 54.312 191.347 53.8C191.176 51.3253 191.262 49.32 191.603 47.784C192.03 46.1627 192.158 44.5413 191.987 42.92C191.902 42.4933 191.944 42.0667 192.115 41.64C192.286 41.2133 192.371 40.6587 192.371 39.976V35.752C192.371 34.5573 192.371 33.2347 192.371 31.784C192.371 30.248 192.414 28.4987 192.499 26.536C192.584 22.696 192.627 20.136 192.627 18.856C192.712 17.576 192.84 16.68 193.011 16.168C193.096 15.3147 193.31 14.632 193.651 14.12C194.078 13.608 194.291 12.7547 194.291 11.56C194.291 11.4747 194.12 11.2187 193.779 10.792C193.523 10.3653 193.182 9.81066 192.755 9.128C192.499 8.78666 192.328 8.36 192.243 7.848C192.158 7.336 192.115 6.86666 192.115 6.43999C192.2 5.928 192.243 5.50133 192.243 5.16C192.328 4.81866 192.371 3.83733 192.371 2.216C194.675 1.53333 197.022 1.19199 199.411 1.19199C201.8 1.19199 203.72 1.10666 205.171 0.935997C205.683 0.850665 206.067 0.76533 206.323 0.679993C206.664 0.59466 206.963 0.551994 207.219 0.551994C207.475 0.466662 207.774 0.423996 208.115 0.423996C208.542 0.338664 209.139 0.295998 209.907 0.295998C210.248 1.14933 210.718 2.088 211.315 3.112C211.912 4.136 212.382 5.07466 212.723 5.92799C213.832 7.46399 214.899 8.18933 215.923 8.104C216.947 8.01866 217.886 7.63466 218.739 6.952C219.678 6.26933 220.446 5.54399 221.043 4.77599C221.64 3.92266 222.024 3.49599 222.195 3.49599L236.659 3.62399L247.667 11.176C248.094 11.6027 248.648 12.1147 249.331 12.712C250.014 13.224 250.739 13.9493 251.507 14.888C253.214 16.68 254.494 17.5333 255.347 17.448L258.419 21.928C258.248 22.184 257.864 22.952 257.267 24.232C256.755 25.4267 255.987 27.1333 254.963 29.352C253 33.96 252.019 37.544 252.019 40.104L249.459 41.64C247.752 42.3227 246.899 44.072 246.899 46.888C245.448 46.7173 243.059 47.272 239.731 48.552C238.792 48.9787 237.768 49.2773 236.659 49.448C235.55 49.5333 234.526 49.6187 233.587 49.704C232.99 49.7893 232.392 49.832 231.795 49.832C231.283 49.832 230.728 49.832 230.131 49.832L228.723 53.032C227.699 52.264 226.547 51.752 225.267 51.496C223.987 51.24 222.707 51.1547 221.427 51.24C220.232 51.3253 219.08 51.496 217.971 51.752C216.862 52.008 215.923 52.3067 215.155 52.648C212.339 53.672 210.888 54.184 210.803 54.184H210.035C210.12 54.2693 210.163 54.3973 210.163 54.568C209.992 55.4213 209.694 56.4453 209.267 57.64C208.926 58.7493 208.755 59.5173 208.755 59.944C208.755 60.456 208.798 61.1813 208.883 62.12C208.968 62.9733 209.054 64.1253 209.139 65.576C209.224 66.9413 209.267 68.0933 209.267 69.032C209.352 69.9707 209.395 70.696 209.395 71.208L209.907 74.664C210.078 75.3467 210.206 76.0293 210.291 76.712C210.376 77.3093 210.504 77.9493 210.675 78.632L208.627 83.24ZM213.363 14.632C213.363 15.3147 213.363 16.1253 213.363 17.064C213.448 18.0027 213.534 19.0693 213.619 20.264C214.046 25.5547 214.174 28.712 214.003 29.736C212.296 30.76 211.272 32.296 210.931 34.344C210.675 35.4533 210.419 36.52 210.163 37.544C209.907 38.4827 209.608 39.2933 209.267 39.976L209.011 40.232C209.011 41.1707 209.011 41.8533 209.011 42.28C209.096 42.7067 209.139 43.2187 209.139 43.816L211.571 45.48L214.003 44.84C214.003 46.7173 216.307 46.6747 220.915 44.712C225.438 42.8347 227.998 41.896 228.595 41.896H233.971C234.654 40.9573 235.464 39.976 236.403 38.952C237.342 37.8427 237.811 37.16 237.811 36.904L239.475 27.56L238.707 24.36L221.683 12.2H216.051L213.363 14.632ZM250.483 83.496C250.312 82.728 249.8 82.216 248.947 81.96C248.606 81.6187 248.478 81.1493 248.563 80.552C248.648 79.9547 248.563 79.5707 248.307 79.4C248.222 79.2293 248.136 79.144 248.051 79.144C247.966 79.144 247.838 79.1013 247.667 79.016C247.582 78.8453 247.326 78.5467 246.899 78.12C246.643 77.7787 246.344 77.4373 246.003 77.096C245.662 76.6693 245.278 76.1147 244.851 75.432C243.912 74.2373 243.187 73.2987 242.675 72.616C242.163 71.848 241.779 71.3787 241.523 71.208C241.182 71.0373 240.67 70.696 239.987 70.184C239.304 69.672 238.835 69.3733 238.579 69.288C238.323 69.032 238.11 68.7333 237.939 68.392C237.768 68.0507 237.598 67.7947 237.427 67.624C237.256 67.4533 237.043 66.856 236.787 65.832C236.531 64.808 236.275 63.912 236.019 63.144C235.08 62.2907 233.672 60.7547 231.795 58.536C231.198 57.9387 230.856 57.5547 230.771 57.384L232.435 54.952L238.579 58.024C238.664 58.1093 239.091 58.1093 239.859 58.024C240.712 57.9387 241.608 57.896 242.547 57.896C243.486 57.8107 244.382 57.8107 245.235 57.896C246.174 57.9813 246.771 58.2373 247.027 58.664C247.368 59.0907 247.795 59.3893 248.307 59.56C248.819 59.7307 249.331 59.9013 249.843 60.072C250.44 60.1573 250.91 60.2427 251.251 60.328C251.678 60.4133 251.934 60.584 252.019 60.84L254.579 65.576C254.92 66.0027 255.518 66.728 256.371 67.752C257.31 68.6907 258.547 70.0133 260.083 71.72C263.155 75.304 264.734 77.1387 264.819 77.224L264.435 81.704L254.195 84.648L250.483 83.496ZM325.966 13.224L317.262 13.096L310.094 15.528C309.838 15.528 308.985 16.8933 307.534 19.624C306.937 20.9893 306.211 22.4827 305.358 24.104C304.59 25.7253 304.035 26.7493 303.694 27.176L300.75 46.376C300.579 46.376 299.982 47.8267 298.958 50.728C298.531 52.1787 298.105 53.3733 297.678 54.312C297.251 55.1653 296.91 55.848 296.654 56.36C296.654 56.9573 297.465 58.5787 299.086 61.224L302.158 59.432L304.974 64.936L303.31 68.136C303.566 68.5627 303.779 68.9467 303.95 69.288C304.121 69.544 304.291 69.8 304.462 70.056L304.846 70.824C304.846 71.08 305.358 71.7627 306.382 72.872C307.321 74.0667 308.089 74.664 308.686 74.664C309.625 74.664 310.307 74.4933 310.734 74.152C311.246 73.8107 311.63 73.64 311.886 73.64C312.142 73.64 312.441 73.8107 312.782 74.152C313.123 74.408 313.422 74.5787 313.678 74.664C317.689 75.176 321.187 74.28 324.174 71.976C325.113 71.8053 326.35 71.6347 327.886 71.464C329.422 71.2933 330.702 70.6533 331.726 69.544C332.067 69.4587 332.494 69.2027 333.006 68.776C333.518 68.3493 334.073 67.88 334.67 67.368C335.267 66.7707 335.907 66.1733 336.59 65.576C337.273 64.9787 337.998 64.4667 338.766 64.04C339.193 63.784 339.534 63.9973 339.79 64.68C340.131 65.3627 340.473 65.6187 340.814 65.448L342.094 66.984L339.918 73.512L335.054 77.352L328.142 79.272C326.009 79.9547 323.705 80.68 321.23 81.448C318.841 82.216 317.091 82.6853 315.982 82.856C315.043 82.9413 314.019 83.1547 312.91 83.496C311.801 83.752 310.734 84.0507 309.71 84.392C308.686 84.648 307.79 84.904 307.022 85.16C306.254 85.3307 305.785 85.416 305.614 85.416C302.371 85.416 300.025 85.4587 298.574 85.544C297.123 85.544 296.057 85.544 295.374 85.544L283.854 77.096C283.683 75.4747 282.403 72.9147 280.014 69.416C277.71 66.2587 276.558 64.296 276.558 63.528L277.71 53.032C277.966 51.24 278.179 49.4053 278.35 47.528C278.521 45.5653 278.649 43.7733 278.734 42.152C278.819 40.5307 278.862 39.1227 278.862 37.928C278.947 36.7333 278.99 36.008 278.99 35.752C279.673 35.4107 280.654 34.6 281.934 33.32C283.214 31.9547 284.366 30.0773 285.39 27.688C287.523 23.2507 288.291 19.3253 287.694 15.912C288.121 15.7413 289.315 15.4427 291.278 15.016C293.241 14.5893 295.246 13.9493 297.294 13.096C299.342 12.328 300.921 11.7307 302.03 11.304C303.139 10.8773 303.779 10.6213 303.95 10.536C304.035 10.4507 304.377 10.3227 304.974 10.152C305.657 9.98133 306.382 9.85333 307.15 9.768C308.003 9.59733 308.814 9.46933 309.582 9.384C310.35 9.21333 310.905 9.128 311.246 9.128L315.214 5.28799L326.734 5.16L329.55 6.952L328.782 11.048L325.966 13.224ZM414.346 40.616C414.346 40.872 414.261 41.2987 414.09 41.896C414.005 42.408 413.877 42.9627 413.706 43.56C413.535 44.1573 413.365 44.712 413.194 45.224C413.109 45.736 413.066 46.12 413.066 46.376C410.079 46.632 408.117 46.888 407.178 47.144C406.325 47.3147 405.813 47.4 405.642 47.4H397.066C395.786 47.4 394.805 47.4 394.122 47.4C393.439 47.3147 392.885 47.272 392.458 47.272C392.117 47.272 391.861 47.3147 391.69 47.4C391.519 47.4 391.263 47.4427 390.922 47.528L388.234 49.192L384.266 47.4C384.181 46.9733 383.754 46.504 382.986 45.992C382.303 45.48 381.834 44.8827 381.578 44.2L385.674 38.568C387.381 38.568 388.277 38.6107 388.362 38.696C388.533 38.696 388.575 38.6533 388.49 38.568C388.49 38.4827 388.746 38.3973 389.258 38.312C389.77 38.1413 390.367 38.0133 391.05 37.928L392.97 37.544C393.567 37.4587 396.341 37.5867 401.29 37.928C401.375 37.928 401.973 38.1413 403.082 38.568C403.509 38.7387 404.575 38.696 406.282 38.44C408.074 38.0987 410.079 37.928 412.298 37.928L414.346 40.616ZM414.858 75.432C414.687 75.944 414.559 76.5413 414.474 77.224C414.474 77.9067 414.559 78.376 414.73 78.632C414.559 78.8027 414.047 79.016 413.194 79.272C412.341 79.528 411.146 79.9547 409.61 80.552C407.989 80.9787 406.453 81.064 405.002 80.808C403.551 80.552 402.143 80.5947 400.778 80.936C396.597 80.936 392.287 81.576 387.85 82.856C386.655 83.1973 385.631 83.496 384.778 83.752C383.925 84.008 383.199 84.2213 382.602 84.392C382.261 84.5627 381.919 84.6907 381.578 84.776C381.322 84.776 381.066 84.8187 380.81 84.904L370.826 85.288C370.058 85.544 369.247 85.6293 368.394 85.544C367.541 85.3733 366.687 85.2027 365.834 85.032C364.981 84.776 364.213 84.52 363.53 84.264C362.847 84.008 362.293 83.88 361.866 83.88C361.439 83.88 360.714 83.9227 359.69 84.008C358.666 84.008 357.727 84.008 356.874 84.008C356.021 83.4107 355.253 82.8133 354.57 82.216C353.887 81.5333 353.845 80.3813 354.442 78.76C354.613 77.9067 354.911 77.0533 355.338 76.2C355.85 75.2613 356.021 74.3227 355.85 73.384C355.765 73.0427 355.551 72.488 355.21 71.72C354.954 70.952 354.741 70.1413 354.57 69.288C354.485 68.4347 354.485 67.5813 354.57 66.728C354.741 65.8747 355.21 65.1493 355.978 64.552C356.661 63.4427 356.959 62.4187 356.874 61.48C356.789 60.456 356.405 59.3893 355.722 58.28C356.234 57.6827 356.533 57 356.618 56.232C356.789 55.3787 356.831 54.568 356.746 53.8C356.661 53.032 356.49 52.3493 356.234 51.752C356.063 51.1547 355.893 50.728 355.722 50.472C355.978 49.2773 356.234 47.6987 356.49 45.736C356.746 43.688 356.959 41.64 357.13 39.592C357.386 37.4587 357.557 35.496 357.642 33.704C357.727 31.912 357.727 30.5893 357.642 29.736C357.557 28.6267 357.642 27.4747 357.898 26.28C358.154 25.0853 358.453 23.8907 358.794 22.696C359.135 21.416 359.391 20.1787 359.562 18.984C359.733 17.7893 359.69 16.68 359.434 15.656L359.69 14.888C359.861 14.7173 359.562 13.3947 358.794 10.92L360.842 6.43999H360.97C362.677 6.35466 364.426 6.26933 366.218 6.184C368.01 6.09867 369.631 6.01333 371.082 5.92799C372.618 5.84266 373.855 5.8 374.794 5.8C375.818 5.71466 376.373 5.672 376.458 5.672H394.122C394.719 5.672 395.487 5.97066 396.426 6.56799C397.45 7.08 400.863 7.336 406.666 7.336C406.751 7.67733 406.837 8.01866 406.922 8.35999C407.007 8.70133 407.093 9.04266 407.178 9.384C407.434 10.92 407.733 12.1147 408.074 12.968L407.306 14.248C406.026 14.3333 405.045 14.376 404.362 14.376C403.679 14.376 403.167 14.376 402.826 14.376C402.57 14.2907 402.399 14.248 402.314 14.248C402.229 14.1627 402.143 14.12 402.058 14.12L392.074 12.84C389.599 12.328 386.527 12.6267 382.858 13.736C381.237 14.1627 379.914 14.2907 378.89 14.12C377.866 13.864 377.183 13.8213 376.842 13.992C375.818 13.6507 374.965 13.6507 374.282 13.992C373.599 14.3333 373.386 14.9733 373.642 15.912C373.898 16.7653 374.197 17.2773 374.538 17.448C374.879 17.6187 375.135 17.96 375.306 18.472C375.135 18.728 375.178 19.112 375.434 19.624C375.775 20.0507 376.159 20.4773 376.586 20.904C377.098 21.416 377.61 21.7573 378.122 21.928C378.634 22.0133 378.89 22.0987 378.89 22.184C378.89 22.3547 378.677 23.2507 378.25 24.872C377.823 26.408 377.482 28.2853 377.226 30.504C376.97 32.7227 376.885 35.112 376.97 37.672C377.141 40.232 377.781 42.6213 378.89 44.84C378.463 45.7787 378.079 47.5707 377.738 50.216C377.397 52.776 377.098 55.4213 376.842 58.152C376.671 60.8827 376.543 63.3573 376.458 65.576C376.373 67.7093 376.33 68.8613 376.33 69.032C376.245 69.032 376.117 69.2027 375.946 69.544C375.861 69.8 375.733 70.0987 375.562 70.44C375.391 70.7813 375.178 71.08 374.922 71.336C374.666 71.5067 374.367 71.5067 374.026 71.336V72.488C374.026 72.488 374.282 72.488 374.794 72.488H375.306C375.221 72.9147 375.178 73.512 375.178 74.28C375.178 75.048 375.135 75.688 375.05 76.2L384.778 74.92C386.485 75.0907 388.447 75.1333 390.666 75.048C392.97 74.9627 395.53 74.664 398.346 74.152C401.162 73.7253 403.466 73.5973 405.258 73.768C407.05 73.9387 408.373 73.64 409.226 72.872L412.426 72.744L414.858 75.432ZM429.234 80.68C429.319 80.2533 429.362 79.8693 429.362 79.528C429.447 79.1013 429.533 78.6747 429.618 78.248C430.13 74.664 430.386 72.232 430.386 70.952C430.386 70.696 430.301 70.2693 430.13 69.672C430.045 69.0747 429.959 68.648 429.874 68.392L431.026 39.848C430.599 39.2507 430.514 38.4827 430.77 37.544C431.026 36.52 431.41 35.88 431.922 35.624C432.263 34.4293 432.733 33.064 433.33 31.528C434.013 29.992 434.269 28.2427 434.098 26.28C434.013 25.3413 434.098 24.5733 434.354 23.976C434.61 23.2933 434.823 22.8667 434.994 22.696L436.018 21.672C436.701 20.9893 437.085 20.392 437.17 19.88C437.255 19.2827 437.17 18.728 436.914 18.216C436.658 17.704 436.317 17.32 435.89 17.064C435.549 16.7227 435.207 16.4667 434.866 16.296C434.61 16.04 434.482 15.8693 434.482 15.784C434.653 15.272 434.738 14.8453 434.738 14.504C434.738 14.1627 434.482 13.7787 433.97 13.352L434.226 10.28C434.653 9.68266 435.421 9.384 436.53 9.384C437.725 9.29866 438.663 9.256 439.346 9.256C439.602 9.256 440.029 9.256 440.626 9.256C441.223 9.17066 441.906 9.128 442.674 9.128L444.978 9C445.405 8.91466 445.746 8.87199 446.002 8.87199C446.343 8.87199 446.642 8.87199 446.898 8.87199L448.306 8.23199C448.903 7.89066 449.373 7.71999 449.714 7.71999C449.97 7.71999 450.439 7.84799 451.122 8.104C451.89 8.27466 452.701 8.61599 453.554 9.128L452.914 21.544L451.634 32.424C451.634 32.7653 451.421 33.4907 450.994 34.6C450.567 35.624 450.141 36.4773 449.714 37.16C449.543 37.3307 449.458 37.672 449.458 38.184C449.458 38.6107 449.458 39.1227 449.458 39.72C449.543 40.232 449.586 40.744 449.586 41.256C449.671 41.768 449.671 42.152 449.586 42.408L448.69 51.752C448.69 51.9227 448.605 52.0933 448.434 52.264C448.349 52.3493 448.221 52.648 448.05 53.16C447.965 53.5867 447.837 54.2267 447.666 55.08C447.495 55.9333 447.367 57.128 447.282 58.664C447.111 61.9067 446.941 64.168 446.77 65.448C446.599 66.728 446.514 67.4533 446.514 67.624C446.514 68.4773 446.77 69.0747 447.282 69.416C447.879 69.7573 448.178 70.2693 448.178 70.952C447.837 71.2933 447.922 71.9333 448.434 72.872C449.031 73.8107 450.055 74.408 451.506 74.664C452.957 74.92 454.578 74.8347 456.37 74.408C458.162 73.896 460.125 73.5547 462.258 73.384C463.026 73.384 463.495 73.4693 463.666 73.64C463.922 73.8107 464.135 74.024 464.306 74.28C464.562 74.4507 464.946 74.664 465.458 74.92C466.055 75.0907 467.122 75.2187 468.658 75.304C468.999 75.304 469.639 75.048 470.578 74.536C471.602 74.024 472.029 73.2133 471.858 72.104C472.541 72.104 473.394 71.976 474.418 71.72C475.527 71.464 476.637 71.2507 477.746 71.08C478.855 70.9093 479.837 70.9093 480.69 71.08C481.543 71.1653 482.098 71.592 482.354 72.36L482.866 74.28C482.781 74.4507 482.738 74.664 482.738 74.92C482.738 75.0907 482.695 75.304 482.61 75.56C482.525 75.9867 482.397 76.584 482.226 77.352C482.055 78.0347 481.885 78.8453 481.714 79.784C479.922 79.9547 478.941 79.9973 478.77 79.912C478.599 79.8267 478.429 79.784 478.258 79.784C478.002 79.784 477.575 79.9547 476.978 80.296C476.466 80.552 476.039 80.7653 475.698 80.936C475.186 81.0213 474.333 81.1493 473.138 81.32C472.029 81.4907 470.621 81.6613 468.914 81.832C467.975 82.0027 467.165 82.1307 466.482 82.216C465.885 82.216 465.373 82.2587 464.946 82.344C464.605 82.4293 464.178 82.472 463.666 82.472C463.581 82.472 463.282 82.5147 462.77 82.6C462.258 82.6 461.661 82.6 460.978 82.6H457.138C455.431 82.4293 454.194 82.3013 453.426 82.216C452.743 82.1307 452.189 82.1307 451.762 82.216C451.421 82.216 451.079 82.344 450.738 82.6C450.482 82.7707 449.885 83.112 448.946 83.624C448.605 83.7093 447.965 83.752 447.026 83.752H441.522C440.839 83.6667 440.285 83.624 439.858 83.624C439.517 83.5387 439.133 83.4533 438.706 83.368L433.714 84.904C432.519 84.7333 431.581 84.2213 430.898 83.368C430.215 82.5147 429.661 81.6187 429.234 80.68ZM522.546 5.032V15.016C521.522 19.0267 520.669 22.568 519.986 25.64C519.389 28.6267 518.919 31.4 518.578 33.96C518.237 36.52 518.023 38.952 517.938 41.256C517.938 43.56 518.023 45.992 518.194 48.552C518.365 51.624 518.279 54.3973 517.938 56.872C517.597 59.3467 517.255 61.608 516.914 63.656C516.658 65.704 516.487 67.6667 516.402 69.544C516.317 71.336 516.573 73.1707 517.17 75.048L517.81 78.248L515.634 81.96L498.61 85.288L494.002 82.344C494.087 82.0027 494.557 81.5333 495.41 80.936C496.349 80.2533 496.818 79.5707 496.818 78.888C496.818 77.864 496.818 77.1387 496.818 76.712C496.818 76.2853 496.733 75.6027 496.562 74.664C496.391 74.2373 496.605 72.872 497.202 70.568C497.885 68.1787 498.183 64.936 498.098 60.84C498.098 58.792 498.098 57.2987 498.098 56.36C498.183 55.336 498.226 54.696 498.226 54.44C498.311 54.0987 498.311 53.9707 498.226 54.056C498.226 54.1413 498.141 54.184 497.97 54.184C498.055 53.5013 498.183 52.7333 498.354 51.88C498.525 50.9413 498.695 50.0027 498.866 49.064C499.037 48.552 499.165 48.04 499.25 47.528C499.335 47.016 499.421 46.4613 499.506 45.864C499.762 45.608 499.719 45.096 499.378 44.328C499.122 43.56 498.823 42.9627 498.482 42.536C498.226 42.1093 498.098 41.9387 498.098 42.024C498.098 42.024 498.183 42.024 498.354 42.024C498.525 42.024 498.781 41.8533 499.122 41.512C499.463 41.0853 499.805 40.2747 500.146 39.08L499.25 33.448C499.421 33.448 499.549 33.4907 499.634 33.576C499.805 33.6613 499.89 33.6187 499.89 33.448C499.89 33.192 499.847 32.7227 499.762 32.04C499.677 31.3573 499.506 30.2907 499.25 28.84C498.909 26.024 498.866 24.36 499.122 23.848C499.378 23.2507 499.762 22.9947 500.274 23.08C500.701 22.7387 501.042 22.3973 501.298 22.056C501.639 21.7147 501.853 21.288 501.938 20.776C502.023 20.264 501.981 19.5813 501.81 18.728C501.725 17.7893 501.469 16.5947 501.042 15.144C500.615 13.864 500.658 12.584 501.17 11.304C501.682 10.024 501.981 8.744 502.066 7.464L504.754 4.77599C505.949 4.77599 507.527 4.77599 509.49 4.77599C511.453 4.69066 513.159 4.60533 514.61 4.52C517.682 4.26399 519.901 4.13599 521.266 4.13599L522.546 5.032ZM564.286 9.256C564.286 9.68266 564.243 9.98133 564.158 10.152C564.158 10.3227 564.115 10.4933 564.03 10.664C564.201 11.0907 564.286 11.4747 564.286 11.816C564.286 12.072 564.243 12.328 564.158 12.584C564.158 12.84 564.158 13.1813 564.158 13.608C564.158 13.9493 564.243 14.4187 564.414 15.016C564.841 16.2107 565.267 17.0213 565.694 17.448C566.121 17.7893 566.633 18.1733 567.23 18.6C566.377 19.368 565.95 20.0507 565.95 20.648C565.95 21.16 566.121 21.5867 566.462 21.928C566.803 22.2693 567.315 22.568 567.998 22.824C568.169 22.9947 568.553 23.336 569.15 23.848C569.747 24.2747 570.345 24.4027 570.942 24.232L579.39 38.056L593.982 56.744C595.006 56.8293 595.561 56.2747 595.646 55.08C595.817 53.8 595.774 52.4347 595.518 50.984C595.347 49.448 595.091 48.0827 594.75 46.888C594.409 45.6933 594.238 45.1813 594.238 45.352C593.982 42.8773 593.726 40.9573 593.47 39.592C593.214 38.2267 593.299 36.7333 593.726 35.112C594.153 34.6853 594.238 33.832 593.982 32.552C593.726 31.1867 593.385 29.8213 592.958 28.456C592.787 27.688 592.702 26.8347 592.702 25.896C592.702 24.9573 592.745 24.0187 592.83 23.08C592.915 22.1413 592.958 21.288 592.958 20.52C593.043 19.752 593.043 19.1547 592.958 18.728C592.958 17.8747 592.873 17.064 592.702 16.296C592.531 15.528 592.574 14.8027 592.83 14.12C592.915 13.7787 592.958 13.5653 592.958 13.48C593.043 13.3093 593.086 13.1387 593.086 12.968C593.086 12.7973 593.043 12.5413 592.958 12.2C592.958 11.8587 592.958 11.3467 592.958 10.664L594.75 8.87199C595.006 8.53066 595.433 8.27466 596.03 8.104C596.627 7.93333 597.225 7.848 597.822 7.848C598.505 7.76266 599.102 7.71999 599.614 7.71999C600.211 7.71999 600.638 7.76266 600.894 7.848C601.491 8.01866 602.174 8.14666 602.942 8.23199C603.795 8.23199 604.521 8.18933 605.118 8.104L607.422 8.744L608.83 15.016C607.635 16.296 606.953 17.5333 606.782 18.728C606.611 19.9227 606.569 21.1173 606.654 22.312C606.654 24.36 606.697 25.896 606.782 26.92C606.953 27.8587 607.123 28.5413 607.294 28.968C607.55 29.3947 607.763 29.6507 607.934 29.736C608.19 29.8213 608.403 29.9493 608.574 30.12C608.403 30.8027 608.105 31.4853 607.678 32.168C607.337 32.7653 606.91 33.4053 606.398 34.088C606.142 34.4293 606.014 34.856 606.014 35.368C606.099 35.7947 606.27 36.2213 606.526 36.648C606.782 37.0747 607.081 37.4587 607.422 37.8C607.763 38.056 608.105 38.1413 608.446 38.056C608.617 38.312 608.617 39.0373 608.446 40.232C608.275 41.3413 608.446 43.688 608.958 47.272C609.129 49.064 609.086 50.6 608.83 51.88C608.659 53.0747 608.446 54.1413 608.19 55.08C607.934 55.9333 607.678 56.744 607.422 57.512C607.251 58.1947 607.209 58.92 607.294 59.688C607.379 59.688 607.465 60.072 607.55 60.84C607.635 61.608 607.721 62.4613 607.806 63.4C607.891 64.2533 607.977 65.064 608.062 65.832C608.233 66.5147 608.403 66.8133 608.574 66.728C608.403 69.8 608.446 72.488 608.702 74.792C609.043 77.096 609.086 78.376 608.83 78.632L609.342 80.296L604.094 82.216C603.582 82.216 603.07 82.216 602.558 82.216C602.046 82.216 601.577 82.2587 601.15 82.344C600.297 82.4293 599.443 82.5147 598.59 82.6C597.737 82.6853 597.054 82.7707 596.542 82.856L593.982 81.448C594.067 80.5947 594.238 79.9973 594.494 79.656C595.091 79.3147 595.305 78.0347 595.134 75.816C595.049 75.048 594.835 74.5787 594.494 74.408C594.238 74.2373 593.982 73.9387 593.726 73.512L575.678 49.448C575.422 49.192 575.209 48.936 575.038 48.68C574.697 48.2533 574.355 47.4853 574.014 46.376C573.673 45.2667 573.161 44.1147 572.478 42.92C571.881 41.64 570.857 40.5307 569.406 39.592L568.638 32.424C568.382 31.144 567.017 30.8453 564.542 31.528C564.115 31.8693 563.859 32.2107 563.774 32.552C563.689 32.8933 563.646 33.2347 563.646 33.576C563.731 33.9173 563.817 34.2587 563.902 34.6C563.987 34.9413 563.987 35.24 563.902 35.496C563.817 35.8373 563.731 36.136 563.646 36.392C563.561 36.5627 563.475 36.8613 563.39 37.288C563.39 37.7147 563.347 38.3547 563.262 39.208C563.177 39.976 563.091 41.128 563.006 42.664C562.921 44.2 562.793 45.7787 562.622 47.4C562.537 48.936 562.451 50.4293 562.366 51.88C562.366 53.2453 562.451 54.44 562.622 55.464C562.878 56.488 563.262 57.1707 563.774 57.512C563.774 58.536 563.39 62.76 562.622 70.184C562.366 72.9147 562.153 75.2187 561.982 77.096C561.897 78.888 561.811 80.3387 561.726 81.448L560.062 83.496C558.953 83.6667 557.502 83.8373 555.71 84.008C554.003 84.1787 552.254 84.3493 550.462 84.52C548.755 84.6907 547.134 84.8187 545.598 84.904C544.147 84.9893 543.123 85.032 542.526 85.032C542.014 85.032 541.459 84.8613 540.862 84.52C540.265 84.1787 539.753 83.5387 539.326 82.6C539.838 81.9173 540.137 81.6187 540.222 81.704C540.307 81.704 540.179 81.704 539.838 81.704V67.624L541.502 64.808L539.582 60.072L539.838 56.488C539.838 56.0613 539.923 55.3787 540.094 54.44C540.265 53.416 540.435 52.3067 540.606 51.112C540.777 49.9173 540.905 48.7227 540.99 47.528C541.161 46.248 541.203 45.096 541.118 44.072C540.947 42.1093 540.819 40.616 540.734 39.592C540.649 38.4827 540.606 37.8427 540.606 37.672C540.606 37.3307 540.819 36.7333 541.246 35.88C541.758 34.9413 542.185 34.1733 542.526 33.576C542.782 33.1493 542.867 32.7227 542.782 32.296C542.697 31.784 542.697 31.3573 542.782 31.016C542.953 30.6747 543.166 30.4187 543.422 30.248C543.678 29.992 543.721 30.0773 543.55 30.504C544.062 30.76 544.147 30.12 543.806 28.584C543.55 27.048 543.379 25.1707 543.294 22.952L543.166 16.168C543.081 15.7413 542.995 15.3573 542.91 15.016C542.91 14.6747 542.697 14.1627 542.27 13.48C543.465 12.8827 544.147 12.328 544.318 11.816C544.489 11.304 544.574 10.536 544.574 9.51199C545.257 9.256 546.323 9.08533 547.774 9C549.31 8.82933 550.931 8.70133 552.638 8.616C554.345 8.44533 556.009 8.27466 557.63 8.104C559.251 7.84799 560.574 7.54933 561.598 7.20799L564.286 9.256Z" fill="black"/>
</g>
<g filter="url(#filter1_d_0_1)">
<path d="M181.616 130.728C180.763 130.728 179.781 130.728 178.672 130.728C177.563 130.643 176.283 130.557 174.832 130.472C172.357 130.387 170.096 130.344 168.048 130.344C166 130.259 164.635 130.131 163.952 129.96V139.688C162.757 140.627 161.904 142.504 161.392 145.32C160.709 153.768 160.283 160.552 160.112 165.672C159.941 170.707 159.899 174.632 159.984 177.448C160.069 179.155 160.155 180.605 160.24 181.8C160.325 182.909 160.453 183.805 160.624 184.488L162.032 191.272L161.392 192.296L145.904 195.752H145.52C145.349 195.752 145.136 195.795 144.88 195.88C144.709 195.88 144.539 195.88 144.368 195.88L140.144 192.936C140.144 192.851 140.187 192.808 140.272 192.808C140.357 192.723 140.443 192.595 140.528 192.424C140.613 192.168 140.699 191.784 140.784 191.272C140.869 190.675 140.912 189.864 140.912 188.84C140.912 187.987 140.912 187.389 140.912 187.048C140.997 186.707 140.955 186.152 140.784 185.384C140.613 184.36 140.613 182.056 140.784 178.472C140.869 174.888 140.272 173.096 138.992 173.096C139.163 172.157 139.248 171.048 139.248 169.768C139.333 168.488 139.419 167.293 139.504 166.184C139.589 165.501 139.632 164.861 139.632 164.264C139.632 163.581 139.632 162.899 139.632 162.216C139.717 162.131 139.76 162.045 139.76 161.96C139.845 161.875 139.931 161.789 140.016 161.704L140.144 161.576C140.571 160.893 140.784 160.381 140.784 160.04C140.784 159.613 140.955 158.675 141.296 157.224V151.72C142.917 151.976 143.259 150.611 142.32 147.624C141.552 144.381 141.424 142.76 141.936 142.76C142.192 141.651 142.448 140.371 142.704 138.92C142.875 137.725 143.045 136.445 143.216 135.08C143.387 133.629 143.557 132.179 143.728 130.728L143.216 130.344C142.619 130.856 141.893 131.027 141.04 130.856C140.272 130.685 139.547 130.557 138.864 130.472C136.901 130.728 135.237 130.941 133.872 131.112C132.507 131.283 131.397 131.581 130.544 132.008C130.032 132.179 129.563 132.307 129.136 132.392C128.709 132.477 128.496 133.075 128.496 134.184L121.2 135.72L118.896 134.056C118.555 133.203 118.256 132.392 118 131.624C117.744 130.771 117.573 129.747 117.488 128.552L119.024 124.84C120.219 124.669 121.157 124.584 121.84 124.584C122.608 124.584 123.163 124.627 123.504 124.712C123.931 124.712 124.229 124.755 124.4 124.84C124.571 124.925 124.741 124.968 124.912 124.968C125.851 124.541 126.832 124.157 127.856 123.816C128.88 123.389 130.075 123.005 131.44 122.664C132.891 122.323 134.555 122.024 136.432 121.768C138.395 121.427 140.741 121.085 143.472 120.744L155.12 120.232L156.4 121.256C156.827 121.512 157.296 121.768 157.808 122.024C158.32 122.195 158.832 122.28 159.344 122.28C159.941 122.365 160.496 122.152 161.008 121.64C161.179 121.469 161.349 121.213 161.52 120.872C162.203 120.701 163.312 120.701 164.848 120.872C166.469 120.957 168.901 121.256 172.144 121.768C177.776 122.707 181.488 123.219 183.28 123.304L184.048 124.584V128.808L181.616 130.728ZM246.419 194.088L241.939 194.856C240.915 195.027 239.848 195.027 238.739 194.856C237.63 194.685 236.478 194.6 235.283 194.6C235.027 194.6 234.643 194.6 234.131 194.6C233.619 194.6 233.022 194.6 232.339 194.6C231.742 194.6 231.144 194.643 230.547 194.728C229.95 194.728 229.438 194.728 229.011 194.728L226.195 192.808C226.451 191.101 226.366 189.864 225.939 189.096C225.598 188.328 225.342 187.603 225.171 186.92C225 186.408 224.659 185.597 224.147 184.488C223.635 183.379 223.166 182.099 222.739 180.648C222.739 180.392 222.312 179.624 221.459 178.344C220.606 177.064 219.923 175.912 219.411 174.888L217.875 175.528C217.448 175.528 216.979 175.656 216.467 175.912C215.955 176.168 214.675 176.296 212.627 176.296C212.371 175.784 211.944 175.443 211.347 175.272C210.75 175.016 210.067 174.973 209.299 175.144C208.616 175.229 207.891 175.485 207.123 175.912C206.44 176.339 205.843 176.851 205.331 177.448L200.083 178.216C199.742 177.448 199.358 176.851 198.931 176.424C198.59 175.912 198.206 175.443 197.779 175.016C197.438 174.589 197.139 174.12 196.883 173.608C196.627 173.096 196.499 172.413 196.499 171.56C198.206 171.133 199.187 170.579 199.443 169.896C199.784 169.213 200.04 168.915 200.211 169C200.723 169.256 201.192 169.384 201.619 169.384C201.022 169.384 200.851 169.299 201.107 169.128C201.363 168.957 202.515 168.531 204.563 167.848L213.907 166.696L215.827 168.104C217.192 168.445 218.216 168.531 218.899 168.36C219.582 168.189 220.051 167.891 220.307 167.464C220.563 166.952 220.691 166.397 220.691 165.8C220.776 165.203 220.862 164.691 220.947 164.264C221.118 163.325 220.904 162.557 220.307 161.96C219.795 161.277 219.07 160.68 218.131 160.168C217.96 159.229 217.619 158.163 217.107 156.968C216.68 155.688 216.126 154.195 215.443 152.488C214.846 150.867 214.291 149.16 213.779 147.368C213.352 145.491 212.968 143.784 212.627 142.248C212.286 140.712 212.03 139.432 211.859 138.408C211.688 137.384 211.56 136.787 211.475 136.616C210.28 135.848 209.299 135.805 208.531 136.488C207.763 137.085 207.123 137.981 206.611 139.176C206.184 140.371 205.886 141.651 205.715 143.016C205.63 144.296 205.63 145.192 205.715 145.704C205.63 145.875 205.416 146.173 205.075 146.6C204.734 146.941 204.35 147.325 203.923 147.752C203.496 148.179 203.112 148.605 202.771 149.032C202.43 149.373 202.216 149.629 202.131 149.8C201.79 150.397 201.704 151.037 201.875 151.72C202.046 152.403 201.918 153 201.491 153.512C199.784 156.584 197.779 159.016 195.475 160.808C194.878 161.32 194.408 162.045 194.067 162.984C193.726 163.923 193.512 164.904 193.427 165.928C193.342 166.952 193.427 167.976 193.683 169C193.939 169.939 194.408 170.707 195.091 171.304C194.238 171.816 193.555 172.371 193.043 172.968C192.616 173.48 192.232 174.077 191.891 174.76C191.635 175.357 191.379 176.04 191.123 176.808C190.867 177.491 190.568 178.259 190.227 179.112C188.776 182.952 188.051 184.957 188.051 185.128L186.259 188.84L184.595 195.624C184.68 196.904 184.211 197.672 183.187 197.928C182.248 198.184 180.712 198.312 178.579 198.312C176.531 198.824 174.739 199.08 173.203 199.08C171.667 198.995 171.155 198.184 171.667 196.648C173.886 191.357 175.507 187.432 176.531 184.872C177.64 182.227 178.195 180.221 178.195 178.856C178.195 178.429 178.366 178.088 178.707 177.832C179.134 177.491 179.475 177.235 179.731 177.064C179.816 176.893 180.115 175.997 180.627 174.376C181.224 172.755 181.864 170.963 182.547 169C183.23 166.952 183.87 165.032 184.467 163.24C185.15 161.363 185.662 160.083 186.003 159.4C186.771 157.779 187.667 155.944 188.691 153.896C189.8 151.848 191.08 149.885 192.531 148.008C193.299 146.984 193.939 145.576 194.451 143.784C195.048 141.992 195.603 140.029 196.115 137.896C196.627 135.763 197.182 133.587 197.779 131.368C198.376 129.149 199.144 127.101 200.083 125.224C200.595 125.053 202.088 123.176 204.563 119.592C204.734 119.421 204.862 119.251 204.947 119.08C205.118 118.824 205.288 118.611 205.459 118.44L221.843 117.416C222.184 117.843 222.568 118.355 222.995 118.952C223.422 119.549 223.891 120.189 224.403 120.872C226.024 122.92 227.006 124.541 227.347 125.736C227.688 126.931 227.902 127.741 227.987 128.168C227.816 128.424 228.712 131.325 230.675 136.872C231.187 138.237 231.614 139.773 231.955 141.48C232.296 143.187 232.552 144.808 232.723 146.344C232.894 147.795 232.979 149.075 232.979 150.184C232.979 151.208 232.936 151.763 232.851 151.848C232.68 151.933 234.046 153 236.947 155.048C237.63 155.56 238.014 156.029 238.099 156.456C238.27 156.883 238.27 157.267 238.099 157.608C238.014 157.949 237.843 158.248 237.587 158.504C237.331 158.76 237.203 158.931 237.203 159.016L240.659 163.624C240.659 163.624 241.64 167.336 243.603 174.76C244.712 178.344 245.523 181.416 246.035 183.976C246.547 186.451 246.803 188.371 246.803 189.736C246.803 189.907 246.846 190.035 246.931 190.12C246.931 190.035 247.016 190.248 247.187 190.76L246.419 194.088ZM308.866 130.728C308.013 130.728 307.031 130.728 305.922 130.728C304.813 130.643 303.533 130.557 302.082 130.472C299.607 130.387 297.346 130.344 295.298 130.344C293.25 130.259 291.885 130.131 291.202 129.96V139.688C290.007 140.627 289.154 142.504 288.642 145.32C287.959 153.768 287.533 160.552 287.362 165.672C287.191 170.707 287.149 174.632 287.234 177.448C287.319 179.155 287.405 180.605 287.49 181.8C287.575 182.909 287.703 183.805 287.874 184.488L289.282 191.272L288.642 192.296L273.154 195.752H272.77C272.599 195.752 272.386 195.795 272.13 195.88C271.959 195.88 271.789 195.88 271.618 195.88L267.394 192.936C267.394 192.851 267.437 192.808 267.522 192.808C267.607 192.723 267.693 192.595 267.778 192.424C267.863 192.168 267.949 191.784 268.034 191.272C268.119 190.675 268.162 189.864 268.162 188.84C268.162 187.987 268.162 187.389 268.162 187.048C268.247 186.707 268.205 186.152 268.034 185.384C267.863 184.36 267.863 182.056 268.034 178.472C268.119 174.888 267.522 173.096 266.242 173.096C266.413 172.157 266.498 171.048 266.498 169.768C266.583 168.488 266.669 167.293 266.754 166.184C266.839 165.501 266.882 164.861 266.882 164.264C266.882 163.581 266.882 162.899 266.882 162.216C266.967 162.131 267.01 162.045 267.01 161.96C267.095 161.875 267.181 161.789 267.266 161.704L267.394 161.576C267.821 160.893 268.034 160.381 268.034 160.04C268.034 159.613 268.205 158.675 268.546 157.224V151.72C270.167 151.976 270.509 150.611 269.57 147.624C268.802 144.381 268.674 142.76 269.186 142.76C269.442 141.651 269.698 140.371 269.954 138.92C270.125 137.725 270.295 136.445 270.466 135.08C270.637 133.629 270.807 132.179 270.978 130.728L270.466 130.344C269.869 130.856 269.143 131.027 268.29 130.856C267.522 130.685 266.797 130.557 266.114 130.472C264.151 130.728 262.487 130.941 261.122 131.112C259.757 131.283 258.647 131.581 257.794 132.008C257.282 132.179 256.813 132.307 256.386 132.392C255.959 132.477 255.746 133.075 255.746 134.184L248.45 135.72L246.146 134.056C245.805 133.203 245.506 132.392 245.25 131.624C244.994 130.771 244.823 129.747 244.738 128.552L246.274 124.84C247.469 124.669 248.407 124.584 249.09 124.584C249.858 124.584 250.413 124.627 250.754 124.712C251.181 124.712 251.479 124.755 251.65 124.84C251.821 124.925 251.991 124.968 252.162 124.968C253.101 124.541 254.082 124.157 255.106 123.816C256.13 123.389 257.325 123.005 258.69 122.664C260.141 122.323 261.805 122.024 263.682 121.768C265.645 121.427 267.991 121.085 270.722 120.744L282.37 120.232L283.65 121.256C284.077 121.512 284.546 121.768 285.058 122.024C285.57 122.195 286.082 122.28 286.594 122.28C287.191 122.365 287.746 122.152 288.258 121.64C288.429 121.469 288.599 121.213 288.77 120.872C289.453 120.701 290.562 120.701 292.098 120.872C293.719 120.957 296.151 121.256 299.394 121.768C305.026 122.707 308.738 123.219 310.53 123.304L311.298 124.584V128.808L308.866 130.728ZM375.741 130.728C374.888 130.728 373.906 130.728 372.797 130.728C371.688 130.643 370.408 130.557 368.957 130.472C366.482 130.387 364.221 130.344 362.173 130.344C360.125 130.259 358.76 130.131 358.077 129.96V139.688C356.882 140.627 356.029 142.504 355.517 145.32C354.834 153.768 354.408 160.552 354.237 165.672C354.066 170.707 354.024 174.632 354.109 177.448C354.194 179.155 354.28 180.605 354.365 181.8C354.45 182.909 354.578 183.805 354.749 184.488L356.157 191.272L355.517 192.296L340.029 195.752H339.645C339.474 195.752 339.261 195.795 339.005 195.88C338.834 195.88 338.664 195.88 338.493 195.88L334.269 192.936C334.269 192.851 334.312 192.808 334.397 192.808C334.482 192.723 334.568 192.595 334.653 192.424C334.738 192.168 334.824 191.784 334.909 191.272C334.994 190.675 335.037 189.864 335.037 188.84C335.037 187.987 335.037 187.389 335.037 187.048C335.122 186.707 335.08 186.152 334.909 185.384C334.738 184.36 334.738 182.056 334.909 178.472C334.994 174.888 334.397 173.096 333.117 173.096C333.288 172.157 333.373 171.048 333.373 169.768C333.458 168.488 333.544 167.293 333.629 166.184C333.714 165.501 333.757 164.861 333.757 164.264C333.757 163.581 333.757 162.899 333.757 162.216C333.842 162.131 333.885 162.045 333.885 161.96C333.97 161.875 334.056 161.789 334.141 161.704L334.269 161.576C334.696 160.893 334.909 160.381 334.909 160.04C334.909 159.613 335.08 158.675 335.421 157.224V151.72C337.042 151.976 337.384 150.611 336.445 147.624C335.677 144.381 335.549 142.76 336.061 142.76C336.317 141.651 336.573 140.371 336.829 138.92C337 137.725 337.17 136.445 337.341 135.08C337.512 133.629 337.682 132.179 337.853 130.728L337.341 130.344C336.744 130.856 336.018 131.027 335.165 130.856C334.397 130.685 333.672 130.557 332.989 130.472C331.026 130.728 329.362 130.941 327.997 131.112C326.632 131.283 325.522 131.581 324.669 132.008C324.157 132.179 323.688 132.307 323.261 132.392C322.834 132.477 322.621 133.075 322.621 134.184L315.325 135.72L313.021 134.056C312.68 133.203 312.381 132.392 312.125 131.624C311.869 130.771 311.698 129.747 311.613 128.552L313.149 124.84C314.344 124.669 315.282 124.584 315.965 124.584C316.733 124.584 317.288 124.627 317.629 124.712C318.056 124.712 318.354 124.755 318.525 124.84C318.696 124.925 318.866 124.968 319.037 124.968C319.976 124.541 320.957 124.157 321.981 123.816C323.005 123.389 324.2 123.005 325.565 122.664C327.016 122.323 328.68 122.024 330.557 121.768C332.52 121.427 334.866 121.085 337.597 120.744L349.245 120.232L350.525 121.256C350.952 121.512 351.421 121.768 351.933 122.024C352.445 122.195 352.957 122.28 353.469 122.28C354.066 122.365 354.621 122.152 355.133 121.64C355.304 121.469 355.474 121.213 355.645 120.872C356.328 120.701 357.437 120.701 358.973 120.872C360.594 120.957 363.026 121.256 366.269 121.768C371.901 122.707 375.613 123.219 377.405 123.304L378.173 124.584V128.808L375.741 130.728ZM453.496 138.536C453.837 140.413 453.965 142.291 453.88 144.168C453.88 145.96 453.837 147.709 453.752 149.416C453.752 151.123 453.795 152.787 453.88 154.408C454.051 155.944 454.477 157.395 455.16 158.76C454.904 159.187 454.392 160.04 453.624 161.32C452.941 162.6 452.429 163.923 452.088 165.288C451.747 166.568 451.789 167.549 452.216 168.232C452.643 168.915 452.813 169.341 452.728 169.512C452.643 169.768 452.557 170.067 452.472 170.408C452.387 170.664 452.259 171.005 452.088 171.432C451.832 172.115 451.405 172.968 450.808 173.992C450.296 175.016 449.571 176.211 448.632 177.576C447.693 178.941 447.053 180.136 446.712 181.16C446.456 182.099 446.285 182.952 446.2 183.72C446.2 184.488 446.2 185.171 446.2 185.768C446.2 186.365 446.029 186.92 445.688 187.432C445.517 187.603 445.133 187.731 444.536 187.816C443.939 187.816 443.213 187.901 442.36 188.072C441.507 188.243 440.568 188.541 439.544 188.968C438.605 189.309 437.709 189.864 436.856 190.632C435.235 190.973 433.955 191.443 433.016 192.04C432.163 192.552 430.84 192.893 429.048 193.064C427.085 193.491 425.763 194.045 425.08 194.728C424.397 195.325 423.928 195.624 423.672 195.624C421.197 195.624 419.277 195.709 417.912 195.88C416.547 195.965 415.651 196.093 415.224 196.264L413.944 196.52C413.688 196.605 413.133 196.648 412.28 196.648L394.36 191.144L385.272 180.904C385.272 178.259 385.229 176.04 385.144 174.248C385.144 172.371 385.101 170.749 385.016 169.384C385.016 167.933 385.016 166.568 385.016 165.288C385.016 164.008 385.059 162.6 385.144 161.064C385.485 160.808 386.04 160.04 386.808 158.76C387.661 157.395 388.515 155.901 389.368 154.28C390.221 152.573 391.032 150.824 391.8 149.032C392.568 147.24 393.165 145.747 393.592 144.552C393.933 143.272 394.232 142.291 394.488 141.608C394.744 140.84 394.957 140.2 395.128 139.688C395.384 139.176 395.597 138.664 395.768 138.152C395.939 137.64 396.109 137 396.28 136.232L399.608 132.904C399.608 132.819 400.077 132.221 401.016 131.112C402.04 129.917 403.192 128.637 404.472 127.272C405.837 125.821 407.245 124.499 408.696 123.304C410.147 122.109 411.341 121.469 412.28 121.384L418.552 120.744L421.112 121C421.453 121.085 421.752 121.128 422.008 121.128C422.349 121.128 422.648 121.128 422.904 121.128H423.8L428.152 125.096C428.237 126.035 428.451 126.803 428.792 127.4C429.219 127.997 430.072 128.467 431.352 128.808C432.717 129.149 433.443 129.32 433.528 129.32C433.613 129.405 433.613 129.491 433.528 129.576C435.149 129.576 436.856 129.149 438.648 128.296C440.44 127.357 442.189 126.888 443.896 126.888C444.323 126.888 444.792 127.101 445.304 127.528C445.816 127.955 446.328 128.467 446.84 129.064L448.376 130.728C448.888 131.325 449.357 131.667 449.784 131.752C449.613 133.373 449.656 134.568 449.912 135.336C450.253 136.019 450.637 136.531 451.064 136.872C451.576 137.128 452.045 137.341 452.472 137.512C452.984 137.683 453.325 138.024 453.496 138.536ZM431.992 177.448C432.504 177.107 432.931 176.893 433.272 176.808C433.613 176.637 433.912 176.381 434.168 176.04C434.509 175.699 434.808 175.144 435.064 174.376C435.405 173.523 435.789 172.243 436.216 170.536C436.728 168.829 437.155 167.421 437.496 166.312C437.837 165.117 438.093 164.136 438.264 163.368C438.435 162.515 438.563 161.747 438.648 161.064C438.733 160.381 438.776 159.656 438.776 158.888C438.776 157.437 438.861 155.816 439.032 154.024C439.203 152.147 439.032 150.184 438.52 148.136C438.093 146.685 437.795 145.064 437.624 143.272C437.539 141.48 437.411 139.944 437.24 138.664C436.387 138.152 435.875 137.341 435.704 136.232C435.533 135.123 434.979 134.056 434.04 133.032C433.528 132.605 432.973 132.349 432.376 132.264C431.864 132.179 431.352 132.179 430.84 132.264C430.413 132.349 429.987 132.477 429.56 132.648C429.219 132.819 428.963 132.904 428.792 132.904C428.536 132.904 428.024 132.861 427.256 132.776C426.488 132.605 425.592 132.563 424.568 132.648C423.629 132.648 422.648 132.819 421.624 133.16C420.685 133.416 419.917 133.971 419.32 134.824C416.675 137.811 415.139 139.688 414.712 140.456C413.517 142.675 412.451 144.808 411.512 146.856C410.659 148.904 409.891 150.44 409.208 151.464C408.867 152.317 408.141 153.597 407.032 155.304C406.008 157.011 405.496 159.443 405.496 162.6C405.581 162.856 405.453 163.496 405.112 164.52C404.771 165.459 404.429 166.611 404.088 167.976C403.832 169.341 403.619 170.749 403.448 172.2C403.277 173.565 403.405 174.803 403.832 175.912C404.173 176.765 404.899 178.131 406.008 180.008C407.117 181.8 409.037 183.72 411.768 185.768C413.475 186.877 414.627 188.029 415.224 189.224C415.821 190.333 416.333 190.888 416.76 190.888C417.187 190.888 417.869 190.888 418.808 190.888C419.747 190.803 420.429 190.973 420.856 191.4L431.992 177.448ZM535.996 138.536C536.337 140.413 536.465 142.291 536.38 144.168C536.38 145.96 536.337 147.709 536.252 149.416C536.252 151.123 536.295 152.787 536.38 154.408C536.551 155.944 536.977 157.395 537.66 158.76C537.404 159.187 536.892 160.04 536.124 161.32C535.441 162.6 534.929 163.923 534.588 165.288C534.247 166.568 534.289 167.549 534.716 168.232C535.143 168.915 535.313 169.341 535.228 169.512C535.143 169.768 535.057 170.067 534.972 170.408C534.887 170.664 534.759 171.005 534.588 171.432C534.332 172.115 533.905 172.968 533.308 173.992C532.796 175.016 532.071 176.211 531.132 177.576C530.193 178.941 529.553 180.136 529.212 181.16C528.956 182.099 528.785 182.952 528.7 183.72C528.7 184.488 528.7 185.171 528.7 185.768C528.7 186.365 528.529 186.92 528.188 187.432C528.017 187.603 527.633 187.731 527.036 187.816C526.439 187.816 525.713 187.901 524.86 188.072C524.007 188.243 523.068 188.541 522.044 188.968C521.105 189.309 520.209 189.864 519.356 190.632C517.735 190.973 516.455 191.443 515.516 192.04C514.663 192.552 513.34 192.893 511.548 193.064C509.585 193.491 508.263 194.045 507.58 194.728C506.897 195.325 506.428 195.624 506.172 195.624C503.697 195.624 501.777 195.709 500.412 195.88C499.047 195.965 498.151 196.093 497.724 196.264L496.444 196.52C496.188 196.605 495.633 196.648 494.78 196.648L476.86 191.144L467.772 180.904C467.772 178.259 467.729 176.04 467.644 174.248C467.644 172.371 467.601 170.749 467.516 169.384C467.516 167.933 467.516 166.568 467.516 165.288C467.516 164.008 467.559 162.6 467.644 161.064C467.985 160.808 468.54 160.04 469.308 158.76C470.161 157.395 471.015 155.901 471.868 154.28C472.721 152.573 473.532 150.824 474.3 149.032C475.068 147.24 475.665 145.747 476.092 144.552C476.433 143.272 476.732 142.291 476.988 141.608C477.244 140.84 477.457 140.2 477.628 139.688C477.884 139.176 478.097 138.664 478.268 138.152C478.439 137.64 478.609 137 478.78 136.232L482.108 132.904C482.108 132.819 482.577 132.221 483.516 131.112C484.54 129.917 485.692 128.637 486.972 127.272C488.337 125.821 489.745 124.499 491.196 123.304C492.647 122.109 493.841 121.469 494.78 121.384L501.052 120.744L503.612 121C503.953 121.085 504.252 121.128 504.508 121.128C504.849 121.128 505.148 121.128 505.404 121.128H506.3L510.652 125.096C510.737 126.035 510.951 126.803 511.292 127.4C511.719 127.997 512.572 128.467 513.852 128.808C515.217 129.149 515.943 129.32 516.028 129.32C516.113 129.405 516.113 129.491 516.028 129.576C517.649 129.576 519.356 129.149 521.148 128.296C522.94 127.357 524.689 126.888 526.396 126.888C526.823 126.888 527.292 127.101 527.804 127.528C528.316 127.955 528.828 128.467 529.34 129.064L530.876 130.728C531.388 131.325 531.857 131.667 532.284 131.752C532.113 133.373 532.156 134.568 532.412 135.336C532.753 136.019 533.137 136.531 533.564 136.872C534.076 137.128 534.545 137.341 534.972 137.512C535.484 137.683 535.825 138.024 535.996 138.536ZM514.492 177.448C515.004 177.107 515.431 176.893 515.772 176.808C516.113 176.637 516.412 176.381 516.668 176.04C517.009 175.699 517.308 175.144 517.564 174.376C517.905 173.523 518.289 172.243 518.716 170.536C519.228 168.829 519.655 167.421 519.996 166.312C520.337 165.117 520.593 164.136 520.764 163.368C520.935 162.515 521.063 161.747 521.148 161.064C521.233 160.381 521.276 159.656 521.276 158.888C521.276 157.437 521.361 155.816 521.532 154.024C521.703 152.147 521.532 150.184 521.02 148.136C520.593 146.685 520.295 145.064 520.124 143.272C520.039 141.48 519.911 139.944 519.74 138.664C518.887 138.152 518.375 137.341 518.204 136.232C518.033 135.123 517.479 134.056 516.54 133.032C516.028 132.605 515.473 132.349 514.876 132.264C514.364 132.179 513.852 132.179 513.34 132.264C512.913 132.349 512.487 132.477 512.06 132.648C511.719 132.819 511.463 132.904 511.292 132.904C511.036 132.904 510.524 132.861 509.756 132.776C508.988 132.605 508.092 132.563 507.068 132.648C506.129 132.648 505.148 132.819 504.124 133.16C503.185 133.416 502.417 133.971 501.82 134.824C499.175 137.811 497.639 139.688 497.212 140.456C496.017 142.675 494.951 144.808 494.012 146.856C493.159 148.904 492.391 150.44 491.708 151.464C491.367 152.317 490.641 153.597 489.532 155.304C488.508 157.011 487.996 159.443 487.996 162.6C488.081 162.856 487.953 163.496 487.612 164.52C487.271 165.459 486.929 166.611 486.588 167.976C486.332 169.341 486.119 170.749 485.948 172.2C485.777 173.565 485.905 174.803 486.332 175.912C486.673 176.765 487.399 178.131 488.508 180.008C489.617 181.8 491.537 183.72 494.268 185.768C495.975 186.877 497.127 188.029 497.724 189.224C498.321 190.333 498.833 190.888 499.26 190.888C499.687 190.888 500.369 190.888 501.308 190.888C502.247 190.803 502.929 190.973 503.356 191.4L514.492 177.448Z" fill="black"/>
</g>
<defs>
<filter id="filter0_d_0_1" x="0.552002" y="0.296005" width="612.79" height="94.784" filterUnits="userSpaceOnUse" color-interpolation-filters="sRGB">
<feFlood flood-opacity="0" result="BackgroundImageFix"/>
<feColorMatrix in="SourceAlpha" type="matrix" values="0 0 0 0 0 0 0 0 0 0 0 0 0 0 0 0 0 0 127 0" result="hardAlpha"/>
<feOffset dy="4"/>
<feGaussianBlur stdDeviation="2"/>
<feComposite in2="hardAlpha" operator="out"/>
<feColorMatrix type="matrix" values="0 0 0 0 1 0 0 0 0 0.807843 0 0 0 0 0.160784 0 0 0 1 0"/>
<feBlend mode="normal" in2="BackgroundImageFix" result="effect1_dropShadow_0_1"/>
<feBlend mode="normal" in="SourceGraphic" in2="effect1_dropShadow_0_1" result="shape"/>
</filter>
<filter id="filter1_d_0_1" x="113.488" y="117.416" width="428.172" height="89.664" filterUnits="userSpaceOnUse" color-interpolation-filters="sRGB">
<feFlood flood-opacity="0" result="BackgroundImageFix"/>
<feColorMatrix in="SourceAlpha" type="matrix" values="0 0 0 0 0 0 0 0 0 0 0 0 0 0 0 0 0 0 127 0" result="hardAlpha"/>
<feOffset dy="4"/>
<feGaussianBlur stdDeviation="2"/>
<feComposite in2="hardAlpha" operator="out"/>
<feColorMatrix type="matrix" values="0 0 0 0 1 0 0 0 0 0.807843 0 0 0 0 0.160784 0 0 0 1 0"/>
<feBlend mode="normal" in2="BackgroundImageFix" result="effect1_dropShadow_0_1"/>
<feBlend mode="normal" in="SourceGraphic" in2="effect1_dropShadow_0_1" result="shape"/>
</filter>
</defs>
</svg>
