<svg width="409" height="414" viewBox="0 0 409 414" fill="none" xmlns="http://www.w3.org/2000/svg">
<path d="M112.14 2.64C111.687 8.42 111.347 13.9733 111.12 19.3C111.007 24.6267 110.95 28.7067 110.95 31.54C110.95 34.0333 111.007 36.4133 111.12 38.68C111.233 40.9467 111.347 42.8733 111.46 44.46H107.55C105.737 34.94 103.413 27.4033 100.58 21.85C97.86 16.2967 94.5733 12.3867 90.72 10.12C86.8667 7.73999 82.3333 6.54999 77.12 6.54999H73.21V103.62C73.21 108.153 73.6633 111.553 74.57 113.82C75.59 116.087 77.4033 117.617 80.01 118.41C82.6167 119.09 86.4133 119.487 91.4 119.6V123C87.8867 122.887 83.1833 122.773 77.29 122.66C71.51 122.547 65.4467 122.49 59.1 122.49C52.8667 122.49 46.9733 122.547 41.42 122.66C35.8667 122.773 31.39 122.887 27.99 123V119.6C33.09 119.487 36.9433 119.09 39.55 118.41C42.1567 117.617 43.9133 116.087 44.82 113.82C45.7267 111.553 46.18 108.153 46.18 103.62V6.54999H42.44C37.2267 6.54999 32.6933 7.73999 28.84 10.12C24.9867 12.3867 21.7 16.2967 18.98 21.85C16.26 27.29 13.88 34.8267 11.84 44.46H7.93C8.15667 42.8733 8.27 40.9467 8.27 38.68C8.38333 36.4133 8.44 34.0333 8.44 31.54C8.44 28.7067 8.32667 24.6267 8.1 19.3C7.98667 13.9733 7.70333 8.42 7.25 2.64C12.4633 2.75333 18.13 2.86666 24.25 2.97999C30.4833 3.09333 36.7167 3.14999 42.95 3.14999C49.1833 3.14999 54.7933 3.14999 59.78 3.14999C64.88 3.14999 70.49 3.14999 76.61 3.14999C82.8433 3.14999 89.0767 3.09333 95.31 2.97999C101.543 2.86666 107.153 2.75333 112.14 2.64ZM194.415 123V119.6C198.041 119.373 200.761 118.92 202.575 118.24C204.388 117.56 205.578 116.2 206.145 114.16C206.825 112.12 207.165 109.06 207.165 104.98V20.66C207.165 16.4667 206.825 13.4067 206.145 11.48C205.578 9.44 204.331 8.08 202.405 7.4C200.591 6.60666 197.928 6.15333 194.415 6.04V2.64C197.475 2.75333 201.441 2.86666 206.315 2.97999C211.301 3.09333 216.231 3.14999 221.105 3.14999C226.318 3.14999 231.191 3.09333 235.725 2.97999C240.371 2.86666 244.111 2.75333 246.945 2.64V6.04C243.318 6.15333 240.541 6.60666 238.615 7.4C236.801 8.08 235.611 9.44 235.045 11.48C234.478 13.4067 234.195 16.4667 234.195 20.66V104.98C234.195 109.06 234.478 112.12 235.045 114.16C235.725 116.2 236.971 117.56 238.785 118.24C240.598 118.92 243.318 119.373 246.945 119.6V123C244.111 122.773 240.371 122.66 235.725 122.66C231.191 122.547 226.318 122.49 221.105 122.49C216.231 122.49 211.301 122.547 206.315 122.66C201.441 122.66 197.475 122.773 194.415 123ZM122.335 123V119.6C125.961 119.373 128.681 118.92 130.495 118.24C132.308 117.56 133.498 116.2 134.065 114.16C134.745 112.12 135.085 109.06 135.085 104.98V20.66C135.085 16.4667 134.745 13.4067 134.065 11.48C133.498 9.44 132.251 8.08 130.325 7.4C128.511 6.60666 125.848 6.15333 122.335 6.04V2.64C125.281 2.75333 129.078 2.86666 133.725 2.97999C138.485 3.09333 143.641 3.14999 149.195 3.14999C153.955 3.14999 158.658 3.09333 163.305 2.97999C167.951 2.86666 171.805 2.75333 174.865 2.64V6.04C171.238 6.15333 168.461 6.60666 166.535 7.4C164.721 8.08 163.531 9.44 162.965 11.48C162.398 13.4067 162.115 16.4667 162.115 20.66V104.98C162.115 109.06 162.398 112.12 162.965 114.16C163.645 116.2 164.891 117.56 166.705 118.24C168.518 118.92 171.238 119.373 174.865 119.6V123C171.805 122.773 167.951 122.66 163.305 122.66C158.658 122.547 153.955 122.49 149.195 122.49C143.641 122.49 138.485 122.547 133.725 122.66C129.078 122.66 125.281 122.773 122.335 123ZM151.065 64.18V60.78H218.215V64.18H151.065ZM310.831 2.64V6.04C307.205 6.15333 304.428 6.60666 302.501 7.4C300.688 8.08 299.498 9.44 298.931 11.48C298.365 13.4067 298.081 16.4667 298.081 20.66V104.98C298.081 109.06 298.365 112.12 298.931 114.16C299.611 116.2 300.858 117.56 302.671 118.24C304.485 118.92 307.205 119.373 310.831 119.6V123C307.771 122.773 303.918 122.66 299.271 122.66C294.625 122.547 289.921 122.49 285.161 122.49C279.608 122.49 274.451 122.547 269.691 122.66C265.045 122.66 261.248 122.773 258.301 123V119.6C261.928 119.373 264.648 118.92 266.461 118.24C268.275 117.56 269.465 116.2 270.031 114.16C270.711 112.12 271.051 109.06 271.051 104.98V20.66C271.051 16.4667 270.711 13.4067 270.031 11.48C269.465 9.44 268.218 8.08 266.291 7.4C264.478 6.60666 261.815 6.15333 258.301 6.04V2.64C261.248 2.75333 265.045 2.86666 269.691 2.97999C274.451 3.09333 279.608 3.14999 285.161 3.14999C289.921 3.14999 294.625 3.09333 299.271 2.97999C303.918 2.86666 307.771 2.75333 310.831 2.64ZM364.718 0.429997C371.404 0.429997 376.561 1.16666 380.188 2.64C383.814 4 386.931 5.47333 389.538 7.05999C390.898 7.85333 391.974 8.47667 392.768 8.93C393.674 9.26999 394.524 9.43999 395.318 9.43999C396.451 9.43999 397.244 8.81666 397.698 7.57C398.264 6.32333 398.718 4.45333 399.058 1.96H402.968C402.854 4.11333 402.684 6.72 402.458 9.78C402.344 12.7267 402.231 16.6367 402.118 21.51C402.118 26.3833 402.118 32.7867 402.118 40.72H398.208C397.754 34.8267 396.394 29.1033 394.128 23.55C391.861 17.9967 388.631 13.4633 384.438 9.95C380.358 6.32333 375.314 4.51 369.308 4.51C363.868 4.51 359.391 6.04 355.878 9.1C352.364 12.16 350.608 16.41 350.608 21.85C350.608 26.3833 351.741 30.2933 354.008 33.58C356.274 36.7533 359.561 39.87 363.868 42.93C368.288 45.99 373.614 49.6733 379.848 53.98C385.288 57.4933 390.161 61.0067 394.468 64.52C398.774 68.0333 402.231 72 404.838 76.42C407.444 80.84 408.748 86.11 408.748 92.23C408.748 99.71 406.764 105.887 402.798 110.76C398.944 115.633 393.844 119.317 387.498 121.81C381.151 124.19 374.181 125.38 366.588 125.38C359.561 125.38 353.951 124.7 349.758 123.34C345.564 121.98 342.051 120.563 339.218 119.09C336.724 117.503 334.798 116.71 333.438 116.71C332.304 116.71 331.454 117.333 330.888 118.58C330.434 119.827 330.038 121.697 329.698 124.19H325.788C326.014 121.47 326.128 118.297 326.128 114.67C326.241 111.043 326.298 106.34 326.298 100.56C326.411 94.6667 326.468 87.2433 326.468 78.29H330.378C330.831 85.77 332.078 92.7967 334.118 99.37C336.271 105.83 339.501 111.043 343.808 115.01C348.228 118.977 354.064 120.96 361.317 120.96C365.284 120.96 368.798 120.28 371.858 118.92C375.031 117.447 377.581 115.293 379.508 112.46C381.434 109.627 382.398 106.113 382.398 101.92C382.398 97.16 381.264 93.0233 378.998 89.51C376.844 85.9967 373.841 82.71 369.988 79.65C366.248 76.59 361.884 73.4733 356.898 70.3C351.571 66.7867 346.584 63.2733 341.938 59.76C337.291 56.2467 333.551 52.2233 330.718 47.69C327.998 43.1567 326.638 37.7733 326.638 31.54C326.638 24.4 328.394 18.5633 331.908 14.03C335.534 9.38333 340.238 5.98333 346.018 3.82999C351.911 1.56333 358.144 0.429997 364.718 0.429997ZM61.31 146.64V150.04C57.6833 150.153 54.9067 150.607 52.98 151.4C51.1667 152.08 49.9767 153.44 49.41 155.48C48.8433 157.407 48.56 160.467 48.56 164.66V248.98C48.56 253.06 48.8433 256.12 49.41 258.16C50.09 260.2 51.3367 261.56 53.15 262.24C54.9633 262.92 57.6833 263.373 61.31 263.6V267C58.25 266.773 54.3967 266.66 49.75 266.66C45.1033 266.547 40.4 266.49 35.64 266.49C30.0867 266.49 24.93 266.547 20.17 266.66C15.5233 266.66 11.7267 266.773 8.78 267V263.6C12.4067 263.373 15.1267 262.92 16.94 262.24C18.7533 261.56 19.9433 260.2 20.51 258.16C21.19 256.12 21.53 253.06 21.53 248.98V164.66C21.53 160.467 21.19 157.407 20.51 155.48C19.9433 153.44 18.6967 152.08 16.77 151.4C14.9567 150.607 12.2933 150.153 8.78 150.04V146.64C11.7267 146.753 15.5233 146.867 20.17 146.98C24.93 147.093 30.0867 147.15 35.64 147.15C40.4 147.15 45.1033 147.093 49.75 146.98C54.3967 146.867 58.25 146.753 61.31 146.64ZM115.196 144.43C121.883 144.43 127.039 145.167 130.666 146.64C134.293 148 137.409 149.473 140.016 151.06C141.376 151.853 142.453 152.477 143.246 152.93C144.153 153.27 145.003 153.44 145.796 153.44C146.929 153.44 147.723 152.817 148.176 151.57C148.743 150.323 149.196 148.453 149.536 145.96H153.446C153.333 148.113 153.163 150.72 152.936 153.78C152.823 156.727 152.709 160.637 152.596 165.51C152.596 170.383 152.596 176.787 152.596 184.72H148.686C148.233 178.827 146.873 173.103 144.606 167.55C142.339 161.997 139.109 157.463 134.916 153.95C130.836 150.323 125.793 148.51 119.786 148.51C114.346 148.51 109.869 150.04 106.356 153.1C102.843 156.16 101.086 160.41 101.086 165.85C101.086 170.383 102.219 174.293 104.486 177.58C106.753 180.753 110.039 183.87 114.346 186.93C118.766 189.99 124.093 193.673 130.326 197.98C135.766 201.493 140.639 205.007 144.946 208.52C149.253 212.033 152.709 216 155.316 220.42C157.923 224.84 159.226 230.11 159.226 236.23C159.226 243.71 157.243 249.887 153.276 254.76C149.423 259.633 144.323 263.317 137.976 265.81C131.629 268.19 124.659 269.38 117.066 269.38C110.039 269.38 104.429 268.7 100.236 267.34C96.0427 265.98 92.5294 264.563 89.696 263.09C87.2027 261.503 85.276 260.71 83.916 260.71C82.7827 260.71 81.9327 261.333 81.366 262.58C80.9127 263.827 80.516 265.697 80.176 268.19H76.266C76.4927 265.47 76.606 262.297 76.606 258.67C76.7193 255.043 76.776 250.34 76.776 244.56C76.8893 238.667 76.946 231.243 76.946 222.29H80.856C81.3093 229.77 82.556 236.797 84.596 243.37C86.7493 249.83 89.9794 255.043 94.286 259.01C98.706 262.977 104.543 264.96 111.796 264.96C115.763 264.96 119.276 264.28 122.336 262.92C125.509 261.447 128.059 259.293 129.986 256.46C131.913 253.627 132.876 250.113 132.876 245.92C132.876 241.16 131.743 237.023 129.476 233.51C127.323 229.997 124.319 226.71 120.466 223.65C116.726 220.59 112.363 217.473 107.376 214.3C102.049 210.787 97.0627 207.273 92.416 203.76C87.7693 200.247 84.0293 196.223 81.196 191.69C78.476 187.157 77.116 181.773 77.116 175.54C77.116 168.4 78.8727 162.563 82.386 158.03C86.0127 153.383 90.716 149.983 96.496 147.83C102.389 145.563 108.623 144.43 115.196 144.43ZM65.56 290.3L106.87 396.72C108.457 400.8 110.213 403.633 112.14 405.22C114.18 406.693 115.993 407.487 117.58 407.6V411C114.18 410.773 110.157 410.66 105.51 410.66C100.977 410.547 96.3867 410.49 91.74 410.49C86.5267 410.49 81.5967 410.547 76.95 410.66C72.3033 410.66 68.62 410.773 65.9 411V407.6C71.68 407.373 75.3067 406.41 76.78 404.71C78.3667 402.897 78.0267 399.1 75.76 393.32L46.86 314.27L49.92 309.85L24.08 377.17C21.5867 383.403 20.0567 388.503 19.49 392.47C19.0367 396.437 19.32 399.497 20.34 401.65C21.4733 403.803 23.23 405.333 25.61 406.24C28.1033 407.033 31.05 407.487 34.45 407.6V411C30.71 410.773 27.14 410.66 23.74 410.66C20.34 410.547 16.8833 410.49 13.37 410.49C10.8767 410.49 8.49667 410.547 6.23 410.66C4.07667 410.66 2.15 410.773 0.45 411V407.6C2.83 407.147 5.26667 405.617 7.76 403.01C10.2533 400.403 12.69 395.983 15.07 389.75L53.83 290.3C55.6433 290.413 57.57 290.47 59.61 290.47C61.7633 290.47 63.7467 290.413 65.56 290.3ZM77.46 362.04V365.44H26.8L28.5 362.04H77.46ZM118.848 290.64C121.682 290.753 125.478 290.867 130.238 290.98C135.112 291.093 139.928 291.15 144.688 291.15C150.128 291.15 155.398 291.093 160.498 290.98C165.598 290.867 169.225 290.81 171.378 290.81C181.918 290.81 190.645 292 197.558 294.38C204.585 296.647 209.798 299.99 213.198 304.41C216.712 308.83 218.468 314.157 218.468 320.39C218.468 324.243 217.675 328.153 216.088 332.12C214.502 335.973 211.782 339.6 207.928 343C204.188 346.287 199.032 348.95 192.458 350.99C185.885 352.917 177.612 353.88 167.638 353.88H151.318V350.48H165.938C172.625 350.48 177.668 349.233 181.068 346.74C184.582 344.133 186.962 340.733 188.208 336.54C189.568 332.233 190.248 327.473 190.248 322.26C190.248 313.307 188.662 306.393 185.488 301.52C182.315 296.533 176.875 294.04 169.168 294.04C164.748 294.04 161.858 295.003 160.498 296.93C159.252 298.857 158.628 302.767 158.628 308.66V392.98C158.628 397.06 158.912 400.12 159.478 402.16C160.158 404.2 161.405 405.56 163.218 406.24C165.032 406.92 167.752 407.373 171.378 407.6V411C168.318 410.773 164.465 410.66 159.818 410.66C155.172 410.547 150.468 410.49 145.708 410.49C140.268 410.49 135.112 410.547 130.238 410.66C125.478 410.66 121.682 410.773 118.848 411V407.6C122.475 407.373 125.195 406.92 127.008 406.24C128.822 405.56 130.012 404.2 130.578 402.16C131.258 400.12 131.598 397.06 131.598 392.98V308.66C131.598 304.467 131.258 301.407 130.578 299.48C130.012 297.44 128.765 296.08 126.838 295.4C125.025 294.607 122.362 294.153 118.848 294.04V290.64ZM150.978 350.99C155.852 351.103 160.045 351.33 163.558 351.67C167.185 352.01 170.358 352.35 173.078 352.69C175.798 352.917 178.235 353.087 180.388 353.2C190.702 354.107 198.295 356.317 203.168 359.83C208.155 363.343 211.385 368.613 212.858 375.64L216.768 393.15C217.788 397.683 218.865 400.857 219.998 402.67C221.132 404.483 222.775 405.39 224.928 405.39C226.402 405.277 227.592 404.937 228.498 404.37C229.518 403.69 230.595 402.727 231.728 401.48L234.108 403.52C231.048 407.033 227.762 409.527 224.248 411C220.735 412.587 216.485 413.38 211.498 413.38C205.378 413.38 200.335 412.077 196.368 409.47C192.402 406.863 189.795 402.047 188.548 395.02L185.488 378.02C184.695 373.26 183.732 369.123 182.598 365.61C181.465 361.983 179.878 359.15 177.838 357.11C175.912 354.957 173.192 353.88 169.678 353.88H151.318L150.978 350.99ZM339.415 290.64C338.962 296.42 338.622 301.973 338.395 307.3C338.282 312.627 338.225 316.707 338.225 319.54C338.225 322.033 338.282 324.413 338.395 326.68C338.509 328.947 338.622 330.873 338.735 332.46H334.825C333.012 322.94 330.689 315.403 327.855 309.85C325.135 304.297 321.849 300.387 317.995 298.12C314.142 295.74 309.609 294.55 304.395 294.55H300.485V391.62C300.485 396.153 300.939 399.553 301.845 401.82C302.865 404.087 304.679 405.617 307.285 406.41C309.892 407.09 313.689 407.487 318.675 407.6V411C315.162 410.887 310.459 410.773 304.565 410.66C298.785 410.547 292.722 410.49 286.375 410.49C280.142 410.49 274.249 410.547 268.695 410.66C263.142 410.773 258.665 410.887 255.265 411V407.6C260.365 407.487 264.219 407.09 266.825 406.41C269.432 405.617 271.189 404.087 272.095 401.82C273.002 399.553 273.455 396.153 273.455 391.62V294.55H269.715C264.502 294.55 259.969 295.74 256.115 298.12C252.262 300.387 248.975 304.297 246.255 309.85C243.535 315.29 241.155 322.827 239.115 332.46H235.205C235.432 330.873 235.545 328.947 235.545 326.68C235.659 324.413 235.715 322.033 235.715 319.54C235.715 316.707 235.602 312.627 235.375 307.3C235.262 301.973 234.979 296.42 234.525 290.64C239.739 290.753 245.405 290.867 251.525 290.98C257.759 291.093 263.992 291.15 270.225 291.15C276.459 291.15 282.069 291.15 287.055 291.15C292.155 291.15 297.765 291.15 303.885 291.15C310.119 291.15 316.352 291.093 322.585 290.98C328.819 290.867 334.429 290.753 339.415 290.64Z" fill="#C3C3C3"/>
</svg>
