<svg width="87" height="12" viewBox="0 0 87 12" fill="none" xmlns="http://www.w3.org/2000/svg">
<path d="M9.63 0.38C9.59 0.89 9.56 1.38 9.54 1.85C9.53 2.32 9.525 2.68 9.525 2.93C9.525 3.15 9.53 3.36 9.54 3.56C9.55 3.76 9.56 3.93 9.57 4.07H9.225C9.065 3.23 8.86 2.565 8.61 2.075C8.37 1.585 8.08 1.24 7.74 1.04C7.4 0.829999 7 0.724999 6.54 0.724999H6.195V9.29C6.195 9.69 6.235 9.99 6.315 10.19C6.405 10.39 6.565 10.525 6.795 10.595C7.025 10.655 7.36 10.69 7.8 10.7V11C7.49 10.99 7.075 10.98 6.555 10.97C6.045 10.96 5.51 10.955 4.95 10.955C4.4 10.955 3.88 10.96 3.39 10.97C2.9 10.98 2.505 10.99 2.205 11V10.7C2.655 10.69 2.995 10.655 3.225 10.595C3.455 10.525 3.61 10.39 3.69 10.19C3.77 9.99 3.81 9.69 3.81 9.29V0.724999H3.48C3.02 0.724999 2.62 0.829999 2.28 1.04C1.94 1.24 1.65 1.585 1.41 2.075C1.17 2.555 0.96 3.22 0.78 4.07H0.435C0.455 3.93 0.465 3.76 0.465 3.56C0.475 3.36 0.48 3.15 0.48 2.93C0.48 2.68 0.47 2.32 0.45 1.85C0.44 1.38 0.415 0.89 0.375 0.38C0.835 0.39 1.335 0.4 1.875 0.41C2.425 0.419999 2.975 0.424999 3.525 0.424999C4.075 0.424999 4.57 0.424999 5.01 0.424999C5.46 0.424999 5.955 0.424999 6.495 0.424999C7.045 0.424999 7.595 0.419999 8.145 0.41C8.695 0.4 9.19 0.39 9.63 0.38ZM16.8895 11V10.7C17.2095 10.68 17.4495 10.64 17.6095 10.58C17.7695 10.52 17.8745 10.4 17.9245 10.22C17.9845 10.04 18.0145 9.77 18.0145 9.41V1.97C18.0145 1.6 17.9845 1.33 17.9245 1.16C17.8745 0.98 17.7645 0.86 17.5945 0.8C17.4345 0.73 17.1995 0.69 16.8895 0.68V0.38C17.1595 0.39 17.5095 0.4 17.9395 0.41C18.3795 0.419999 18.8145 0.424999 19.2445 0.424999C19.7045 0.424999 20.1345 0.419999 20.5345 0.41C20.9445 0.4 21.2745 0.39 21.5245 0.38V0.68C21.2045 0.69 20.9595 0.73 20.7895 0.8C20.6295 0.86 20.5245 0.98 20.4745 1.16C20.4245 1.33 20.3995 1.6 20.3995 1.97V9.41C20.3995 9.77 20.4245 10.04 20.4745 10.22C20.5345 10.4 20.6445 10.52 20.8045 10.58C20.9645 10.64 21.2045 10.68 21.5245 10.7V11C21.2745 10.98 20.9445 10.97 20.5345 10.97C20.1345 10.96 19.7045 10.955 19.2445 10.955C18.8145 10.955 18.3795 10.96 17.9395 10.97C17.5095 10.97 17.1595 10.98 16.8895 11ZM10.5295 11V10.7C10.8495 10.68 11.0895 10.64 11.2495 10.58C11.4095 10.52 11.5145 10.4 11.5645 10.22C11.6245 10.04 11.6545 9.77 11.6545 9.41V1.97C11.6545 1.6 11.6245 1.33 11.5645 1.16C11.5145 0.98 11.4045 0.86 11.2345 0.8C11.0745 0.73 10.8395 0.69 10.5295 0.68V0.38C10.7895 0.39 11.1245 0.4 11.5345 0.41C11.9545 0.419999 12.4095 0.424999 12.8995 0.424999C13.3195 0.424999 13.7345 0.419999 14.1445 0.41C14.5545 0.4 14.8945 0.39 15.1645 0.38V0.68C14.8445 0.69 14.5995 0.73 14.4295 0.8C14.2695 0.86 14.1645 0.98 14.1145 1.16C14.0645 1.33 14.0395 1.6 14.0395 1.97V9.41C14.0395 9.77 14.0645 10.04 14.1145 10.22C14.1745 10.4 14.2845 10.52 14.4445 10.58C14.6045 10.64 14.8445 10.68 15.1645 10.7V11C14.8945 10.98 14.5545 10.97 14.1445 10.97C13.7345 10.96 13.3195 10.955 12.8995 10.955C12.4095 10.955 11.9545 10.96 11.5345 10.97C11.1245 10.97 10.7895 10.98 10.5295 11ZM13.0645 5.81V5.51H18.9895V5.81H13.0645ZM27.1616 0.38V0.68C26.8416 0.69 26.5966 0.73 26.4266 0.8C26.2666 0.86 26.1616 0.98 26.1116 1.16C26.0616 1.33 26.0366 1.6 26.0366 1.97V9.41C26.0366 9.77 26.0616 10.04 26.1116 10.22C26.1716 10.4 26.2816 10.52 26.4416 10.58C26.6016 10.64 26.8416 10.68 27.1616 10.7V11C26.8916 10.98 26.5516 10.97 26.1416 10.97C25.7316 10.96 25.3166 10.955 24.8966 10.955C24.4066 10.955 23.9516 10.96 23.5316 10.97C23.1216 10.97 22.7866 10.98 22.5266 11V10.7C22.8466 10.68 23.0866 10.64 23.2466 10.58C23.4066 10.52 23.5116 10.4 23.5616 10.22C23.6216 10.04 23.6516 9.77 23.6516 9.41V1.97C23.6516 1.6 23.6216 1.33 23.5616 1.16C23.5116 0.98 23.4016 0.86 23.2316 0.8C23.0716 0.73 22.8366 0.69 22.5266 0.68V0.38C22.7866 0.39 23.1216 0.4 23.5316 0.41C23.9516 0.419999 24.4066 0.424999 24.8966 0.424999C25.3166 0.424999 25.7316 0.419999 26.1416 0.41C26.5516 0.4 26.8916 0.39 27.1616 0.38ZM31.9163 0.185C32.5063 0.185 32.9613 0.25 33.2813 0.38C33.6013 0.5 33.8763 0.629999 34.1063 0.769999C34.2263 0.84 34.3213 0.895 34.3913 0.935C34.4713 0.965 34.5463 0.979999 34.6163 0.979999C34.7163 0.979999 34.7863 0.924999 34.8263 0.815C34.8763 0.704999 34.9163 0.539999 34.9463 0.32H35.2913C35.2813 0.51 35.2663 0.74 35.2463 1.01C35.2363 1.27 35.2262 1.615 35.2163 2.045C35.2163 2.475 35.2163 3.04 35.2163 3.74H34.8713C34.8313 3.22 34.7113 2.715 34.5113 2.225C34.3113 1.735 34.0263 1.335 33.6563 1.025C33.2963 0.705 32.8513 0.545 32.3213 0.545C31.8413 0.545 31.4463 0.68 31.1363 0.95C30.8263 1.22 30.6713 1.595 30.6713 2.075C30.6713 2.475 30.7713 2.82 30.9713 3.11C31.1713 3.39 31.4613 3.665 31.8413 3.935C32.2313 4.205 32.7013 4.53 33.2513 4.91C33.7313 5.22 34.1613 5.53 34.5413 5.84C34.9213 6.15 35.2263 6.5 35.4563 6.89C35.6863 7.28 35.8013 7.745 35.8013 8.285C35.8013 8.945 35.6263 9.49 35.2763 9.92C34.9363 10.35 34.4863 10.675 33.9263 10.895C33.3663 11.105 32.7513 11.21 32.0813 11.21C31.4613 11.21 30.9663 11.15 30.5963 11.03C30.2263 10.91 29.9163 10.785 29.6663 10.655C29.4463 10.515 29.2763 10.445 29.1563 10.445C29.0563 10.445 28.9813 10.5 28.9313 10.61C28.8913 10.72 28.8563 10.885 28.8263 11.105H28.4813C28.5013 10.865 28.5113 10.585 28.5113 10.265C28.5213 9.945 28.5263 9.53 28.5263 9.02C28.5363 8.5 28.5413 7.845 28.5413 7.055H28.8863C28.9263 7.715 29.0363 8.335 29.2163 8.915C29.4063 9.485 29.6913 9.945 30.0713 10.295C30.4613 10.645 30.9763 10.82 31.6162 10.82C31.9663 10.82 32.2763 10.76 32.5463 10.64C32.8263 10.51 33.0513 10.32 33.2213 10.07C33.3913 9.82 33.4763 9.51 33.4763 9.14C33.4763 8.72 33.3763 8.355 33.1763 8.045C32.9863 7.735 32.7213 7.445 32.3813 7.175C32.0513 6.905 31.6663 6.63 31.2263 6.35C30.7563 6.04 30.3163 5.73 29.9063 5.42C29.4963 5.11 29.1663 4.755 28.9163 4.355C28.6763 3.955 28.5563 3.48 28.5563 2.93C28.5563 2.3 28.7113 1.785 29.0213 1.385C29.3413 0.974999 29.7563 0.674999 30.2663 0.484999C30.7863 0.285 31.3363 0.185 31.9163 0.185ZM45.062 0.38V0.68C44.742 0.69 44.497 0.73 44.327 0.8C44.167 0.86 44.062 0.98 44.012 1.16C43.962 1.33 43.937 1.6 43.937 1.97V9.41C43.937 9.77 43.962 10.04 44.012 10.22C44.072 10.4 44.182 10.52 44.342 10.58C44.502 10.64 44.742 10.68 45.062 10.7V11C44.792 10.98 44.452 10.97 44.042 10.97C43.632 10.96 43.217 10.955 42.797 10.955C42.307 10.955 41.852 10.96 41.432 10.97C41.022 10.97 40.687 10.98 40.427 11V10.7C40.747 10.68 40.987 10.64 41.147 10.58C41.307 10.52 41.412 10.4 41.462 10.22C41.522 10.04 41.552 9.77 41.552 9.41V1.97C41.552 1.6 41.522 1.33 41.462 1.16C41.412 0.98 41.302 0.86 41.132 0.8C40.972 0.73 40.737 0.69 40.427 0.68V0.38C40.687 0.39 41.022 0.4 41.432 0.41C41.852 0.419999 42.307 0.424999 42.797 0.424999C43.217 0.424999 43.632 0.419999 44.042 0.41C44.452 0.4 44.792 0.39 45.062 0.38ZM49.8166 0.185C50.4066 0.185 50.8616 0.25 51.1816 0.38C51.5016 0.5 51.7766 0.629999 52.0066 0.769999C52.1266 0.84 52.2216 0.895 52.2916 0.935C52.3716 0.965 52.4466 0.979999 52.5166 0.979999C52.6166 0.979999 52.6866 0.924999 52.7266 0.815C52.7766 0.704999 52.8166 0.539999 52.8466 0.32H53.1916C53.1816 0.51 53.1666 0.74 53.1466 1.01C53.1366 1.27 53.1266 1.615 53.1166 2.045C53.1166 2.475 53.1166 3.04 53.1166 3.74H52.7716C52.7316 3.22 52.6116 2.715 52.4116 2.225C52.2116 1.735 51.9266 1.335 51.5566 1.025C51.1966 0.705 50.7516 0.545 50.2216 0.545C49.7416 0.545 49.3466 0.68 49.0366 0.95C48.7266 1.22 48.5716 1.595 48.5716 2.075C48.5716 2.475 48.6716 2.82 48.8716 3.11C49.0716 3.39 49.3616 3.665 49.7416 3.935C50.1316 4.205 50.6016 4.53 51.1516 4.91C51.6316 5.22 52.0616 5.53 52.4416 5.84C52.8216 6.15 53.1266 6.5 53.3566 6.89C53.5866 7.28 53.7016 7.745 53.7016 8.285C53.7016 8.945 53.5266 9.49 53.1766 9.92C52.8366 10.35 52.3866 10.675 51.8266 10.895C51.2666 11.105 50.6516 11.21 49.9816 11.21C49.3616 11.21 48.8666 11.15 48.4966 11.03C48.1266 10.91 47.8166 10.785 47.5666 10.655C47.3466 10.515 47.1766 10.445 47.0566 10.445C46.9566 10.445 46.8816 10.5 46.8316 10.61C46.7916 10.72 46.7566 10.885 46.7266 11.105H46.3816C46.4016 10.865 46.4116 10.585 46.4116 10.265C46.4216 9.945 46.4266 9.53 46.4266 9.02C46.4366 8.5 46.4416 7.845 46.4416 7.055H46.7866C46.8266 7.715 46.9366 8.335 47.1166 8.915C47.3066 9.485 47.5916 9.945 47.9716 10.295C48.3616 10.645 48.8766 10.82 49.5166 10.82C49.8666 10.82 50.1766 10.76 50.4466 10.64C50.7266 10.51 50.9516 10.32 51.1216 10.07C51.2916 9.82 51.3766 9.51 51.3766 9.14C51.3766 8.72 51.2766 8.355 51.0766 8.045C50.8866 7.735 50.6216 7.445 50.2816 7.175C49.9516 6.905 49.5666 6.63 49.1266 6.35C48.6566 6.04 48.2166 5.73 47.8066 5.42C47.3966 5.11 47.0666 4.755 46.8166 4.355C46.5766 3.955 46.4566 3.48 46.4566 2.93C46.4566 2.3 46.6116 1.785 46.9216 1.385C47.2416 0.974999 47.6566 0.674999 48.1666 0.484999C48.6866 0.285 49.2366 0.185 49.8166 0.185ZM62.7514 0.349999L66.3964 9.74C66.5364 10.1 66.6914 10.35 66.8614 10.49C67.0414 10.62 67.2014 10.69 67.3414 10.7V11C67.0414 10.98 66.6864 10.97 66.2764 10.97C65.8764 10.96 65.4714 10.955 65.0614 10.955C64.6014 10.955 64.1664 10.96 63.7564 10.97C63.3464 10.97 63.0214 10.98 62.7814 11V10.7C63.2914 10.68 63.6114 10.595 63.7414 10.445C63.8814 10.285 63.8514 9.95 63.6514 9.44L61.1014 2.465L61.3714 2.075L59.0914 8.015C58.8714 8.565 58.7364 9.015 58.6864 9.365C58.6464 9.715 58.6714 9.985 58.7614 10.175C58.8614 10.365 59.0164 10.5 59.2264 10.58C59.4464 10.65 59.7064 10.69 60.0064 10.7V11C59.6764 10.98 59.3614 10.97 59.0614 10.97C58.7614 10.96 58.4564 10.955 58.1464 10.955C57.9264 10.955 57.7164 10.96 57.5164 10.97C57.3264 10.97 57.1564 10.98 57.0064 11V10.7C57.2164 10.66 57.4314 10.525 57.6514 10.295C57.8714 10.065 58.0864 9.675 58.2964 9.125L61.7164 0.349999C61.8764 0.359999 62.0464 0.364999 62.2264 0.364999C62.4164 0.364999 62.5914 0.359999 62.7514 0.349999ZM63.8014 6.68V6.98H59.3314L59.4814 6.68H63.8014ZM67.4534 0.38C67.7034 0.39 68.0384 0.4 68.4584 0.41C68.8884 0.419999 69.3134 0.424999 69.7334 0.424999C70.2134 0.424999 70.6784 0.419999 71.1284 0.41C71.5784 0.4 71.8984 0.395 72.0884 0.395C73.0184 0.395 73.7884 0.5 74.3984 0.709999C75.0184 0.91 75.4784 1.205 75.7784 1.595C76.0884 1.985 76.2434 2.455 76.2434 3.005C76.2434 3.345 76.1734 3.69 76.0334 4.04C75.8934 4.38 75.6534 4.7 75.3134 5C74.9834 5.29 74.5284 5.525 73.9484 5.705C73.3684 5.875 72.6384 5.96 71.7584 5.96H70.3184V5.66H71.6084C72.1984 5.66 72.6434 5.55 72.9434 5.33C73.2534 5.1 73.4634 4.8 73.5734 4.43C73.6934 4.05 73.7534 3.63 73.7534 3.17C73.7534 2.38 73.6134 1.77 73.3334 1.34C73.0534 0.899999 72.5734 0.68 71.8934 0.68C71.5034 0.68 71.2484 0.765 71.1284 0.935C71.0184 1.105 70.9634 1.45 70.9634 1.97V9.41C70.9634 9.77 70.9884 10.04 71.0384 10.22C71.0984 10.4 71.2084 10.52 71.3684 10.58C71.5284 10.64 71.7684 10.68 72.0884 10.7V11C71.8184 10.98 71.4784 10.97 71.0684 10.97C70.6584 10.96 70.2434 10.955 69.8234 10.955C69.3434 10.955 68.8884 10.96 68.4584 10.97C68.0384 10.97 67.7034 10.98 67.4534 11V10.7C67.7734 10.68 68.0134 10.64 68.1734 10.58C68.3334 10.52 68.4384 10.4 68.4884 10.22C68.5484 10.04 68.5784 9.77 68.5784 9.41V1.97C68.5784 1.6 68.5484 1.33 68.4884 1.16C68.4384 0.98 68.3284 0.86 68.1584 0.8C67.9984 0.73 67.7634 0.69 67.4534 0.68V0.38ZM70.2884 5.705C70.7184 5.715 71.0884 5.735 71.3984 5.765C71.7184 5.795 71.9984 5.825 72.2384 5.855C72.4784 5.875 72.6934 5.89 72.8834 5.9C73.7934 5.98 74.4634 6.175 74.8934 6.485C75.3334 6.795 75.6184 7.26 75.7484 7.88L76.0934 9.425C76.1834 9.825 76.2784 10.105 76.3784 10.265C76.4784 10.425 76.6234 10.505 76.8134 10.505C76.9434 10.495 77.0484 10.465 77.1284 10.415C77.2184 10.355 77.3134 10.27 77.4134 10.16L77.6234 10.34C77.3534 10.65 77.0634 10.87 76.7534 11C76.4434 11.14 76.0684 11.21 75.6284 11.21C75.0884 11.21 74.6434 11.095 74.2934 10.865C73.9434 10.635 73.7134 10.21 73.6034 9.59L73.3334 8.09C73.2634 7.67 73.1784 7.305 73.0784 6.995C72.9784 6.675 72.8384 6.425 72.6584 6.245C72.4884 6.055 72.2484 5.96 71.9384 5.96H70.3184L70.2884 5.705ZM86.9152 0.38C86.8752 0.89 86.8452 1.38 86.8252 1.85C86.8152 2.32 86.8102 2.68 86.8102 2.93C86.8102 3.15 86.8152 3.36 86.8252 3.56C86.8352 3.76 86.8452 3.93 86.8552 4.07H86.5102C86.3502 3.23 86.1452 2.565 85.8952 2.075C85.6552 1.585 85.3652 1.24 85.0252 1.04C84.6852 0.829999 84.2852 0.724999 83.8252 0.724999H83.4802V9.29C83.4802 9.69 83.5202 9.99 83.6002 10.19C83.6902 10.39 83.8502 10.525 84.0802 10.595C84.3102 10.655 84.6452 10.69 85.0852 10.7V11C84.7752 10.99 84.3602 10.98 83.8402 10.97C83.3302 10.96 82.7952 10.955 82.2352 10.955C81.6852 10.955 81.1652 10.96 80.6752 10.97C80.1852 10.98 79.7902 10.99 79.4902 11V10.7C79.9402 10.69 80.2802 10.655 80.5102 10.595C80.7402 10.525 80.8952 10.39 80.9752 10.19C81.0552 9.99 81.0952 9.69 81.0952 9.29V0.724999H80.7652C80.3052 0.724999 79.9052 0.829999 79.5652 1.04C79.2252 1.24 78.9352 1.585 78.6952 2.075C78.4552 2.555 78.2452 3.22 78.0652 4.07H77.7202C77.7402 3.93 77.7502 3.76 77.7502 3.56C77.7602 3.36 77.7652 3.15 77.7652 2.93C77.7652 2.68 77.7552 2.32 77.7352 1.85C77.7252 1.38 77.7002 0.89 77.6602 0.38C78.1202 0.39 78.6202 0.4 79.1602 0.41C79.7102 0.419999 80.2602 0.424999 80.8102 0.424999C81.3602 0.424999 81.8552 0.424999 82.2952 0.424999C82.7452 0.424999 83.2402 0.424999 83.7802 0.424999C84.3302 0.424999 84.8802 0.419999 85.4302 0.41C85.9802 0.4 86.4752 0.39 86.9152 0.38Z" fill="#C3C3C3"/>
</svg>
