<svg width="17" height="17" viewBox="0 0 17 17" fill="none" xmlns="http://www.w3.org/2000/svg">
<g clip-path="url(#clip0_0_1)">
<path fill-rule="evenodd" clip-rule="evenodd" d="M9.75892 7.49911C9.91973 7.66664 10.0035 7.86144 9.99959 8.05895C9.99571 8.25646 9.90437 8.44783 9.7371 8.6089L3.63453 14.4901C3.40997 14.7064 3.0646 14.8528 2.67441 14.8971C2.28422 14.9413 1.88116 14.8799 1.55391 14.7262C1.22666 14.5726 1.00202 14.3393 0.929415 14.0777C0.856806 13.8161 0.942174 13.5476 1.16674 13.3314L6.70482 7.99418L1.38078 2.44346C1.27388 2.33208 1.20051 2.20807 1.16486 2.07851C1.1292 1.94895 1.13196 1.81638 1.17298 1.68837C1.25581 1.42983 1.48944 1.20556 1.82248 1.06488C1.98738 0.995224 2.17173 0.948188 2.36498 0.926459C2.55824 0.904729 2.75663 0.908731 2.94882 0.938236C3.33697 0.997825 3.67632 1.15767 3.89221 1.38262L9.75892 7.49911V7.49911Z" fill="#c90000"/>
</g>
<g clip-path="url(#clip1_0_1)">
<path fill-rule="evenodd" clip-rule="evenodd" d="M16.2488 7.50254C16.397 7.69277 16.4738 7.91441 16.4693 8.1395C16.4649 8.36458 16.3795 8.58304 16.2239 8.76729L10.5479 15.4948C10.3391 15.7423 10.0186 15.9105 9.6571 15.9626C9.29558 16.0147 8.92259 15.9464 8.62018 15.7727C8.31777 15.599 8.11073 15.3341 8.04458 15.0363C7.97844 14.7385 8.05862 14.4322 8.26749 14.1848L13.4185 8.07952L8.51142 1.77654C8.4129 1.65006 8.34547 1.50906 8.313 1.36156C8.28052 1.21407 8.28363 1.06299 8.32215 0.91694C8.39995 0.621978 8.61725 0.365425 8.92625 0.203718C9.07925 0.123649 9.25016 0.069276 9.42922 0.0437027C9.60828 0.0181294 9.79198 0.0218569 9.96984 0.0546725C10.329 0.120947 10.6426 0.301679 10.8416 0.557112L16.2488 7.50254V7.50254Z" fill="#c90000"/>
</g>
<defs>
<clipPath id="clip0_0_1">
<rect width="14" height="8.97869" fill="white" transform="translate(10.137 1.0603) rotate(91.1262)"/>
</clipPath>
<clipPath id="clip1_0_1">
<rect width="15.9549" height="8.31402" fill="white" transform="translate(16.626 0.163574) rotate(91.1262)"/>
</clipPath>
</defs>
</svg>
